<svg id="Capa_1" enable-background="new 0 0 490.787 490.787" height="512" viewBox="0 0 490.787 490.787" width="512" xmlns="http://www.w3.org/2000/svg"><g><g fill="#9cbff0"><path d="m180.467 322.746h45v15h-45z" transform="matrix(.707 -.707 .707 .707 -174.071 240.246)"/><path d="m138.041 280.32h45v15h-45z" transform="matrix(.707 -.707 .707 .707 -156.498 197.82)"/><path d="m307.746 195.467h45v15h-45z" transform="matrix(.707 -.707 .707 .707 -46.793 292.967)"/><path d="m265.32 153.041h45v15h-45z" transform="matrix(.707 -.707 .707 .707 -29.219 250.541)"/></g><path d="m351.459 309.033-38.184 4.243-4.243 38.184 27.422 9.141c2.695.898 5.666.197 7.675-1.812l14.658-14.658c2.009-2.009 2.71-4.98 1.812-7.675z" fill="#fcc023"/><path d="m319.64 277.213-31.82 10.607-10.607 31.82c-15.428 15.428-17.31 39.277-5.647 56.76 2.6 3.897 8.169 4.357 11.481 1.045l94.396-94.396c3.313-3.313 2.853-8.881-1.045-11.481-17.481-11.665-41.331-9.783-56.758 5.645z" fill="#fff04a"/><path d="m224.18 330.246 21.213-84.853 84.853-21.213 15.91 15.91c2.929 2.929 2.929 7.678 0 10.607l-95.459 95.459c-2.929 2.929-7.678 2.929-10.607 0z" fill="#c0d4ed"/><path d="m181.754 139.327-4.243 38.184-38.184 4.243-9.141-27.422c-.898-2.695-.197-5.666 1.812-7.675l14.658-14.658c2.009-2.009 4.98-2.71 7.675-1.812z" fill="#fcc023"/><path d="m213.574 171.147-10.607 31.82-31.82 10.607c-15.428 15.428-39.277 17.31-56.76 5.647-3.897-2.6-4.357-8.169-1.044-11.481l94.396-94.396c3.313-3.313 8.881-2.853 11.481 1.045 11.664 17.481 9.782 41.33-5.646 56.758z" fill="#fff04a"/><path d="m144.631 240.09 95.459-95.459c2.929-2.929 7.678-2.929 10.607 0l79.55 79.55-21.213 21.213-42.426 21.213-21.213 42.426-21.213 21.213-79.55-79.55c-2.93-2.928-2.93-7.677-.001-10.606z" fill="#deecff"/><circle cx="245.393" cy="181.754" fill="#c0d4ed" r="7.5"/><circle cx="224.18" cy="202.967" fill="#c0d4ed" r="7.5"/><circle cx="266.607" cy="202.967" fill="#c0d4ed" r="7.5"/><circle cx="245.393" cy="224.18" fill="#c0d4ed" r="7.5"/><path d="m340.853 192.36 34.094-97.733 97.734-34.094 15.91 15.91c2.929 2.929 2.929 7.678 0 10.607l-38.639 38.639-32.578 11.365-11.365 32.578-38.639 38.639c-2.929 2.929-7.678 2.929-10.607 0z" fill="#0f4c81"/><path d="m282.517 123.417 38.639-38.639 43.184-.758.758-43.184 38.639-38.639c2.929-2.929 7.678-2.929 10.607 0l58.336 58.336-131.827 131.827-58.336-58.336c-2.929-2.929-2.929-7.678 0-10.607z" fill="#2d6aab"/><path d="m384.795 148.418-9.848-53.791 53.791 9.848 21.213 21.214-43.943 43.942z" fill="#2d6aab"/><path d="m343.875 49.627h62.144v90h-62.144z" fill="#4b88d5" transform="matrix(.707 -.707 .707 .707 42.908 292.843)"/><path d="m60.533 472.68 34.094-97.734 97.733-34.094 15.91 15.91c2.929 2.929 2.929 7.678 0 10.607l-38.639 38.639-32.578 11.365-11.365 32.578-38.638 38.639c-2.929 2.929-7.678 2.929-10.607 0z" fill="#0f4c81"/><path d="m2.197 403.737 38.639-38.639 43.184-.758.758-43.184 38.639-38.639c2.929-2.929 7.678-2.929 10.607 0l58.336 58.336-131.827 131.827-58.336-58.336c-2.929-2.929-2.929-7.678 0-10.607z" fill="#2d6aab"/><path d="m104.475 428.738-9.848-53.791 53.791 9.848 21.213 21.213-43.942 43.943z" fill="#2d6aab"/><path d="m63.555 329.947h62.144v90h-62.144z" fill="#4b88d5" transform="matrix(.707 -.707 .707 .707 -237.412 176.731)"/><path d="m221.607 251.606h90v30h-90z" fill="#69a7ff" transform="matrix(.707 -.707 .707 .707 -110.432 266.607)"/></g></svg>