<svg xmlns="http://www.w3.org/2000/svg" viewBox="0 0 728 728" width="728" height="728">
	<defs>
		<clipPath clipPathUnits="userSpaceOnUse" id="cp1">
			<path d="M-135 -136L865 -136L865 864L-135 864Z" />
		</clipPath>
	</defs>
	<style>
		tspan { white-space:pre }
		.shp0 { fill: #345c74 } 
		.shp1 { fill: #3f6e8b } 
		.shp2 { fill: #487d9b } 
		.shp3 { fill: #528fa8 } 
		.shp4 { fill: #83a64c } 
		.shp5 { fill: #a0c259 } 
		.shp6 { fill: #b3cd64 } 
		.shp7 { fill: #647f34 } 
		.shp8 { fill: #e0ddcf } 
		.shp9 { fill: #eeece5 } 
		.shp10 { fill: #c6c6c6 } 
	</style>
	<g id="Page 1" clip-path="url(#cp1)">
		<path id="Path 2" class="shp0" d="M365 5.74C562.86 5.74 723.26 166.14 723.26 364C723.26 561.86 562.86 722.26 365 722.26C167.14 722.26 6.74 561.86 6.74 364C6.74 166.14 167.14 5.74 365 5.74Z" />
		<path id="Path 3" class="shp1" d="M365 5.74C559.47 5.74 717.12 163.39 717.12 357.87C717.12 552.34 559.47 709.99 365 709.99C170.53 709.99 12.88 552.34 12.88 357.87C12.88 163.39 170.53 5.74 365 5.74Z" />
		<path id="Path 4" class="shp2" d="M222.49 645.64C140.24 606.14 76.9 529.86 51.48 442.23C26.07 354.6 38.47 257.01 83.47 177.63C114.38 123.11 160.36 76.94 215.66 47.45C296.72 4.24 397.04 -1 482.16 33.53C567.28 68.05 635.6 141.7 663.66 229.17C709.7 372.73 641.69 526.63 519.6 608.64C433.17 666.69 319.37 692.16 222.49 645.64ZM222.49 645.64C140.24 606.14 76.9 529.86 51.48 442.23C26.07 354.6 38.47 257.01 83.47 177.63C114.38 123.11 160.36 76.94 215.66 47.45C296.72 4.24 397.04 -1 482.16 33.53C567.28 68.05 635.6 141.7 663.66 229.17C709.7 372.73 641.69 526.63 519.6 608.64C433.17 666.69 319.37 692.16 222.49 645.64Z" />
		<path id="Path 5" class="shp3" d="M237.37 488.67C178.96 467.94 123.84 439.37 99.81 378.82C84.22 339.53 76.63 288.58 82.72 246.58C106.45 83.18 282.65 -5.56 432.43 49.46C481.42 67.46 524.56 100.37 552.36 144.81C599.45 220.12 590.31 324 546.81 399.59C512.53 459.15 446.76 497.08 378.6 505.78C331.05 511.85 282.7 504.76 237.37 488.67Z" />
		<path id="Path 6" fill-rule="evenodd" class="shp4" d="M721.1 343.89C721.41 339.21 717.45 339.57 715.31 338.85C713.18 338.13 710.44 331.66 708.92 331.66C707.39 331.66 706.48 331.66 705.26 333.82C704.04 335.98 697.64 335.61 696.11 335.61C694.59 335.61 685.45 335.25 682.71 334.17C679.97 333.09 676.92 326.61 675.39 325.89C673.87 325.17 669.3 329.85 667.47 329.14C665.65 328.42 661.98 324.81 658.01 322.65C654.06 320.49 652.84 315.45 651.31 312.21C649.79 308.97 644.61 314.01 645.21 317.61C645.83 321.21 652.54 325.89 652.54 328.42C652.54 330.93 653.75 331.66 657.1 334.89C660.46 338.13 657.72 339.94 659.84 340.65C661.98 341.37 665.02 337.77 668.07 335.98C671.13 334.17 670.82 331.66 672.35 331.66C673.87 331.66 673.56 336.33 676 336.69C678.43 337.05 684.85 341.37 686.36 344.26C687.9 347.14 684.85 348.94 683.62 351.45C682.4 353.98 678.74 361.18 675.69 364.07C672.65 366.94 669.3 370.9 664.72 371.98C660.15 373.06 659.55 375.94 655.89 376.3C652.23 376.66 642.17 382.43 640.65 383.51C639.12 384.6 630.89 387.47 628.46 386.39C626.01 385.31 625.1 378.11 624.19 372.71C623.27 367.31 622.06 364.42 621.15 362.26C620.23 360.1 614.74 354.34 613.52 353.26C612.3 352.18 609.26 343.54 608.95 339.94C608.64 336.33 605.3 337.77 604.69 333.82C604.07 329.85 600.71 324.45 600.11 321.93C599.62 319.88 595.51 321.4 592.68 322.23C593.24 323.28 593.8 324.38 594.32 325.53C596.46 330.21 598.57 336.69 601.02 341.74C603.47 346.79 600.74 356.9 603.18 360.13C605.62 363.38 612 366.23 613.52 370.55C615.05 374.87 618.7 379.19 619.93 379.55C621.15 379.91 626.33 388.18 626.63 390.34C626.93 392.5 624.8 397.19 629.67 397.55C634.56 397.91 638.82 395.03 640.35 394.31C641.87 393.59 653.75 388.18 655.28 390.34C656.8 392.5 653.15 401.87 652.84 404.4C652.54 406.92 643.69 419.16 643.38 422.4C643.09 425.65 637.9 431.41 634.56 432.13C631.2 432.84 624.19 442.93 621.75 446.17C619.31 449.41 615.35 456.61 613.52 457.33C611.69 458.05 610.29 467.62 611.2 469.06C612.11 470.49 612.3 477.14 615.05 480.02C617.79 482.9 618.7 485.06 617.48 487.58C616.26 490.09 618.1 495.86 617.48 500.54C616.87 505.22 611.69 509.89 610.47 511.32C609.26 512.77 603.47 516.75 601.02 520.35C598.57 523.95 596.46 527.19 597.06 528.99C597.66 530.8 600.11 539.79 599.8 541.95C599.51 544.11 591.42 545.22 588.98 546.66C586.54 548.1 590.06 552.76 590.66 555.64C591.27 558.51 586.39 563.21 584.26 565.72C582.12 568.24 576.33 576.88 572.38 580.13C568.42 583.37 562.7 582.72 558.74 582.36C554.79 582 548.29 585.53 546.77 587.33C545.24 589.13 543.12 588.77 540.07 586.97C537.02 585.16 536.71 582.65 536.41 578.68C536.11 574.72 535.19 572.2 535.19 572.2C535.19 572.2 534.28 566.09 531.52 563.21C528.79 560.32 527.87 557.08 526.35 554.91C524.83 552.76 529.17 546.61 528.87 542.65C528.56 538.69 523.3 534.04 521.78 531.51C520.26 528.99 517.2 522.15 515.98 519.62C514.77 517.1 513.24 512.07 513.55 504.87C513.86 497.66 516.95 493.45 519.39 491.28C521.84 489.13 520.87 486.5 518.73 482.19C516.6 477.86 519.05 470.65 517.2 468.14C515.38 465.61 512.55 451.55 509.19 449.39C505.84 447.23 502.28 447.25 504.1 442.21C505.94 437.16 504.1 432.13 507.16 428.88C510.2 425.65 508.67 423.49 505.33 421.32C501.97 419.16 503.19 418.08 500.45 420.6C497.7 423.12 494.04 424.56 491.92 422.04C489.78 419.52 490.39 415.56 486.42 412.68C482.46 409.8 476.12 410.79 474.58 411.5C473.07 412.23 469.97 418.44 465.69 419.16C461.44 419.88 458.38 418.8 454.12 418.8C449.85 418.8 446.19 419.16 445.58 421.69C444.98 424.2 444.06 425.65 441.32 423.12C438.57 420.6 433.09 414.83 433.09 414.83C433.09 414.83 428.02 404.9 426.5 400.57C424.98 396.26 419.68 396.11 413.89 392.87C408.1 389.63 411.45 386.03 410.84 382.43C410.23 378.83 407.19 377.38 408.7 377.02C410.23 376.66 409.92 374.15 413.27 369.1C416.63 364.07 414.49 358.66 413.89 355.78C413.27 352.9 410.23 348.58 413.27 343.89C416.32 339.21 418.23 328.04 420.67 325.16C423.11 322.28 430.35 319.41 433.7 317.61C437.05 315.8 434.92 311.13 436.74 305.73C438.57 300.33 441.32 297.8 442.24 297.8C443.15 297.8 446.53 294.06 450.15 291.69C452.9 289.88 459.3 292.04 460.52 291.32C461.74 290.61 466.61 288.8 469.36 287.36C472.1 285.92 480.94 282.32 482.15 282.32C483.38 282.32 498.61 282.68 500.75 281.59C502.88 280.52 511.13 278.99 513.56 286.91C516 294.83 510.81 291.69 508.38 293.12C505.94 294.56 509.29 297.8 510.5 297.8C511.72 297.8 515.98 302.48 518.12 302.48C520.26 302.48 525.44 305.01 525.44 305.01C525.44 305.01 530.61 309.69 533.36 309.69C536.11 309.69 540.75 315.28 543.8 311.68C546.84 308.08 548.29 300.68 551.35 301.4C554.39 302.13 557.75 305.01 561.7 305.01C565.66 305.01 572.98 304.29 574.21 306.09C575.43 307.89 565.97 314.01 566.58 315.45C567.2 316.88 568.42 316.53 571.47 312.21C574.51 307.89 579.08 307.89 582.74 306.81C584.57 306.27 585.94 307.71 586.93 309.56C587.97 308.98 589.25 308.97 590.66 308.97C593.72 308.97 592.49 307.16 595.54 303.56C598.57 299.96 599.51 292.77 599.8 288.08C600.11 283.39 597.66 285.56 595.24 286.28C592.8 287 589.14 288.08 587.92 287.72C586.7 287.36 581.83 285.56 580.91 286.64C579.99 287.72 574.81 287 573.6 285.21C572.38 283.39 566.28 281.24 565.66 279.8C565.06 278.36 565.66 269.72 564.44 267.55C563.23 265.39 560.49 267.92 558.96 269.36C557.44 270.8 553.18 271.88 554.39 272.96C555.61 274.04 559.58 276.2 559.27 279.07C558.96 281.96 556.22 282.68 554.7 284.12C553.18 285.56 547.63 291.26 546.72 289.46C545.8 287.66 545.24 276.2 544.33 274.75C543.42 273.33 540.67 269.72 539.76 266.47C538.85 263.24 535.5 262.15 533.36 259.63C531.23 257.12 525.13 253.15 522.7 250.27C520.26 247.39 515.98 245.23 515.68 248.83C515.38 252.43 519.96 253.15 521.78 256.75C523.61 260.36 527.57 262.52 529.7 263.59C531.83 264.67 537.63 269.36 537.63 269.36C537.63 269.36 535.19 270.44 533.06 270.08C530.92 269.72 534.26 277.84 533.97 280.35C533.66 282.88 530.01 279.43 529.4 276.56C528.79 273.67 526.96 270.44 525.74 269.36C524.53 268.28 516.6 265.39 515.38 264.67C514.16 263.95 508.98 259.99 508.38 256.75C507.76 253.51 503.19 253.15 501.97 253.88C500.75 254.59 496.18 258.55 494.04 258.55C491.92 258.55 488.56 256.75 486.11 256.39C483.68 256.04 483.38 261.07 482.46 263.95C481.55 266.84 477.59 264.67 475.46 267.2C473.32 269.72 469.66 272.24 470.57 274.4C471.5 276.56 473.01 276.56 470.28 278.36C467.52 280.16 466 283.76 463.26 284.12C460.52 284.48 456.87 285.92 455.34 284.84C453.81 283.76 452.6 288.44 451.68 289.52C450.76 290.61 449.23 286.28 447.72 284.48C446.19 282.68 442.24 284.12 441.02 283.76C439.79 283.39 438.57 280.16 437.05 278.72C435.52 277.28 435.83 274.04 437.05 272.96C438.26 271.88 439.48 270.08 438.57 266.84C437.66 263.59 437.05 256.39 440.1 254.96C443.15 253.51 450.46 254.96 454.12 254.96C457.78 254.96 464.04 256.45 465.09 254.23C466.61 250.99 467.22 247.39 466.92 244.15C466.61 240.91 460.52 238.02 456.56 237.31C452.6 236.59 453.2 234.43 457.47 234.07C461.74 233.71 461.44 231.91 465.09 231.19C468.75 230.47 472.41 229.39 475.15 229.03C477.89 228.66 477.89 225.78 477.89 223.63C477.89 221.47 485.51 220.74 485.51 220.74C485.51 220.74 489.78 216.07 492.21 213.9C494.66 211.74 498.92 212.1 502.28 213.18C505.63 214.26 501.97 210.66 500.75 208.86C499.53 207.06 500.45 203.09 501.36 200.94C502.28 198.77 507.76 197.69 509.29 198.42C510.81 199.13 509.29 202.37 509.59 205.26C509.9 208.14 512.33 209.94 512.33 209.94L514.77 209.58L518.73 209.58C522.7 209.58 522.9 209.67 525.95 208.58C529 207.51 531.23 208.86 532.46 208.14C533.66 207.42 537.02 207.42 541.59 209.22C546.16 211.02 543.72 205.98 544.63 203.09C545.55 200.21 547.38 195.18 550.43 195.53C553.48 195.89 555.92 198.05 558.35 196.26C560.79 194.45 553.78 191.93 553.78 190.85C553.78 189.77 559.58 189.77 564.75 189.41C569.94 189.05 572.98 189.41 575.43 188.7C577.86 187.97 573.6 182.93 572.67 182.93C571.78 182.93 565.66 183.65 562.61 183.29C559.58 182.93 556.22 185.45 553.48 186.17C550.74 186.89 550.12 181.85 548.6 179.69C547.07 177.53 546.46 173.57 550.43 171.41C554.39 169.25 561.41 164.56 562.61 162.4C563.84 160.24 557.75 160.61 551.96 160.96C546.16 161.32 552.87 163.12 547.38 169.61C541.9 176.09 539.16 171.77 534.88 176.09C530.61 180.4 533.66 180.77 537.63 182.21C541.59 183.65 538.24 187.97 537.33 189.05C536.41 190.13 531.83 194.1 532.46 196.97C533.06 199.85 529.4 201.66 529.4 201.66C529.4 201.66 518.12 204.54 515.98 204.9C513.86 205.26 513.24 203.09 513.86 200.94C514.46 198.77 511.41 193.74 511.12 190.5C510.81 187.25 506.24 191.93 505.94 194.1C505.63 196.26 499.84 196.61 496.49 195.18C493.13 193.74 491.3 188.33 491.92 187.25C492.52 186.17 490.09 180.77 490.09 179.33C490.09 177.89 497.21 167.4 503 165.96C508.8 164.52 515.68 160.96 519.65 157.37C523.61 153.76 525.44 149.44 526.66 148.36C527.87 147.28 548.93 135.35 556.55 133.9C564.17 132.47 580.91 141.16 583.65 141.88C586.39 142.59 587.92 143.67 594.63 146.56C601.33 149.44 607.67 146.3 611.93 147.02C616.2 147.74 618.4 152.32 621.15 153.76C623.89 155.21 621.15 156.29 614.43 158.8C607.73 161.32 603.16 160.61 599.51 159.16C595.84 157.72 593.72 157.72 596.46 159.88C599.2 162.04 598.29 163.12 598.57 166.36C598.89 169.61 603.16 166.73 604.07 166C604.98 165.28 604.98 163.85 608.35 166.36C611.69 168.89 612.91 167.44 614.43 167.08C615.96 166.73 614.74 162.76 615.65 161.32C616.57 159.88 620.23 159.88 621.15 159.16C622.06 158.45 624.19 157.37 626.01 157C627.84 156.64 627.54 160.24 629.38 161.32C631.2 162.4 630.28 156.64 629.67 155.21C629.06 153.76 628.46 149.81 629.38 148.72C630.28 147.64 636.69 146.92 638.21 148.36C639.73 149.81 635.78 154.12 636.69 156.64C637.6 159.16 639.73 155.21 641.26 153.04C642.78 150.88 646.13 153.04 651.62 151.96C652.31 151.83 652.89 151.65 653.4 151.45C694.97 207.77 720.43 276.69 723.01 351.42C721.78 349.79 720.91 347 721.1 343.89ZM617.79 257.12C613.82 254.59 610.47 250.63 606.82 249.19C603.16 247.75 601.94 246.31 604.07 245.59C606.21 244.87 608.95 241.99 605.9 241.99C602.85 241.99 600.11 243.07 599.8 244.87C599.51 246.67 597.66 248.83 596.46 249.55C595.24 250.27 592.19 253.15 591.27 250.99C590.36 248.83 587.01 242.35 585.48 241.99C583.96 241.63 581.52 241.99 579.69 245.59C577.86 249.19 575.73 252.8 573.9 254.23C572.07 255.67 569.64 259.99 571.47 260.71C573.29 261.43 571.47 267.92 571.47 267.92C572.07 269.36 575.12 265.75 577.55 265.75C579.99 265.75 585.48 266.84 587.01 264.31C588.53 261.79 593.41 261.43 597.37 262.15C601.33 262.87 604.69 266.11 607.43 266.47C610.17 266.84 617.48 266.11 619.93 265.39C622.36 264.67 621.75 259.63 617.79 257.12ZM590.36 184.37C591.88 181.85 583.34 175.73 581.83 180.77C580.79 184.16 588.84 186.89 590.36 184.37ZM593.72 439.33C592.89 437.77 587.61 438.24 586.7 440.05C585.79 441.85 584.87 450.12 587.61 450.85C590.36 451.57 595.24 442.21 593.72 439.33ZM664.11 241.26C663.2 239.1 657.1 237.31 656.19 238.02C655.28 238.75 652.84 240.91 650.4 242.7C647.96 244.51 643.09 241.26 641.26 242.7C637.56 245.62 636.38 249.55 637.9 252.07C639.43 254.59 643.69 262.52 645.83 263.24C647.96 263.95 655.58 265.39 652.54 268.64C649.49 271.88 648.88 272.96 646.13 272.59C643.38 272.24 644.61 281.24 646.74 281.96C648.88 282.68 655.28 285.21 657.41 285.56C659.55 285.92 666.56 284.84 666.25 282.68C665.94 280.52 664.72 271.88 662.29 269.72C659.84 267.55 665.65 265.39 664.11 263.59C662.58 261.79 660.46 262.52 659.24 260.36C658.01 258.2 657.41 256.04 655.58 254.59C653.75 253.15 652.23 256.04 652.54 252.07C652.84 248.11 657.1 245.59 658.93 247.75C660.76 249.91 666.25 248.83 667.47 247.75C668.69 246.67 665.02 243.43 664.11 241.26ZM446.5 200.58C445.28 198.77 444.34 195.07 446.8 194.1C448.63 193.37 450.46 195.89 451.98 193.74C453.51 191.58 455.65 189.41 458.08 191.21C460.52 193.02 466.98 191.49 469.12 194.01C471.25 196.52 462.66 201.29 464.48 202.74C466.31 204.17 469.36 210.66 472.1 212.1C474.85 213.54 477.89 217.5 478.2 220.02C478.5 222.54 474.54 226.51 472.1 226.51C469.66 226.51 464.78 224.7 462.35 224.7C459.92 224.7 458.99 227.94 457.47 227.22C455.94 226.51 457.78 223.98 457.78 223.98C457.78 223.98 449.2 224.95 449.81 222.79C450.42 220.63 457.47 213.54 459.92 212.1C462.35 210.66 455.94 209.22 452.9 207.78C449.85 206.34 447.72 202.37 446.5 200.58ZM435.22 212.1C434.61 209.58 436.74 208.86 438.57 208.86C440.4 208.86 440.68 205.44 443.45 204.9C445.28 204.54 447.41 204.9 448.63 206.34C449.85 207.78 450.46 210.66 450.46 213.9C450.46 217.15 447.41 219.31 445.28 220.39C443.15 221.47 440.4 223.63 437.96 223.26C435.52 222.9 433.4 218.58 435.22 217.5C437.05 216.42 435.83 214.63 435.22 212.1ZM519.65 281.59C518.12 280.88 515.18 278.42 516.29 277.64C517.82 276.56 521.78 277.64 522.7 277.64C523.61 277.64 526.35 277.64 527.57 281.24C528.79 284.84 524.83 285.21 523.61 284.84C522.39 284.48 521.18 282.32 519.65 281.59ZM480.03 271.52C482.15 267.55 483.68 270.44 483.07 271.88C482.46 273.33 479.29 272.88 480.03 271.52ZM500.75 272.96C498.92 271.16 500.31 265.75 503.19 265.75C504.71 265.75 507.46 269.36 505.94 271.88C504.41 274.4 502.58 274.75 500.75 272.96ZM652.84 502.34C653.15 506.3 651.31 513.15 650.4 515.31C649.49 517.46 647.96 525.75 646.13 529.72C644.3 533.67 644 538.35 642.17 543.04C640.35 547.72 638.82 549.51 634.56 549.51C630.28 549.51 628.76 546.99 629.38 543.04C629.98 539.07 626.01 531.88 628.15 529.36C630.28 526.83 630.58 521.42 628.46 516.02C626.33 510.62 633.02 507.74 634.24 508.11C635.47 508.46 638.82 505.22 641.87 501.26C644.91 497.31 645.36 491.33 649.18 492.61C651.31 493.34 652.54 498.38 652.84 502.34ZM347.14 469.93C347.44 473.53 343.79 481.1 343.48 482.9C343.19 484.69 338.31 491.18 333.72 495.5C329.16 499.82 331.9 504.87 332.21 507.03C332.51 509.19 329.16 517.1 330.07 518.91C330.98 520.71 328.85 524.67 327.02 527.19C325.19 529.72 323.97 534.39 322.76 536.55C321.54 538.71 317.58 537.99 313.92 539.07C310.27 540.15 308.43 541.23 308.43 541.23C308.43 541.23 302.03 544.84 298.38 547.72C294.72 550.59 299.59 555.64 297.76 559.6C295.93 563.56 294.44 560.02 292.61 564.69C290.79 569.38 289.53 568.61 288.01 569.68C286.49 570.77 285.57 573.64 285.27 576.52C284.97 579.4 281.92 582.28 277.96 586.61C273.99 590.92 271.55 590.21 267.29 588.77C263.02 587.33 263.63 575.09 263.02 576.88C262.41 578.68 260.31 584.92 260.92 586.01C261.52 587.08 265.77 591.29 267.29 592.37C268.81 593.45 268.51 595.25 267.29 597.06C266.07 598.85 262.72 605.34 261.5 605.7C260.28 606.05 250.83 607.5 249 606.42C247.18 605.34 246.26 608.94 246.56 611.1C246.87 613.26 248.39 615.77 245.04 615.06C241.68 614.34 237.11 611.82 237.11 613.61C237.11 615.42 238.03 619.38 239.86 619.38C241.68 619.38 243.52 617.94 242.6 620.46C241.68 622.98 239.25 625.14 238.03 626.22C236.81 627.31 235.29 630.9 232.24 633.42C229.19 635.94 229.19 637.38 229.8 638.46C230.41 639.54 234.98 638.82 235.89 639.54C236.81 640.26 234.98 645.31 233.76 646.39C232.54 647.47 227.36 652.5 225.23 653.95C223.09 655.39 223.09 659.72 223.71 661.87C224.31 664.03 229.19 669.43 231.93 670.51C234.68 671.6 240.46 671.23 239.86 672.31C239.25 673.39 232.54 674.47 231.63 674.83C230.72 675.19 225.84 676.64 223.4 676.64C220.97 676.64 216.39 673.75 215.47 673.75C214.56 673.75 216.09 672.31 219.13 669.43C222.17 666.55 217.92 663.31 217.3 667.28C216.69 671.23 215.47 672.31 213.95 672.31C212.42 672.31 210.59 669.79 209.68 668.71C208.77 667.62 204.8 666.55 205.42 662.23C206.02 657.91 203.59 658.27 201.76 656.46C199.93 654.67 204.2 653.23 203.59 651.42C202.98 649.63 200.24 650.71 199.93 648.18C199.63 645.67 202.37 642.06 202.68 640.99C202.98 639.9 200.84 637.74 200.54 635.94C200.24 634.13 201.76 632.34 203.89 629.47C206.02 626.58 207.55 622.98 207.55 621.9C207.55 620.82 206.02 616.86 206.02 613.98C206.02 611.1 207.55 610.02 208.16 606.05C208.77 602.09 206.02 603.54 206.02 600.29C206.02 597.06 209.08 598.13 208.46 594.89C207.85 591.66 209.99 589.49 210.9 587.33C211.82 585.16 212.73 581.57 213.95 579.04C215.17 576.52 212.73 570.77 212.73 569.68C212.73 568.61 216.69 567.16 214.87 565C213.04 562.84 216.46 562.12 218.3 560.32C220.12 558.52 217 552.4 217.92 545.92C218.83 539.43 219.75 528.27 219.75 527.19C219.75 526.11 220.05 521.79 218.52 518.91C217 516.02 215.17 513.86 213.04 512.78C210.9 511.71 208.16 508.46 206.63 508.11C205.11 507.74 195.89 504.71 195.89 499.66C195.89 494.62 192.62 490.46 192.01 486.86C191.4 483.26 186.83 475.34 186.52 471.74C186.21 468.14 179.81 467.06 178.9 463.09C177.99 459.13 180.26 456.56 180.86 454.04C181.48 451.51 180.42 445.81 180.12 444.01C179.81 442.21 182.86 436.26 184.69 435.18C186.52 434.1 189.88 430.33 191.09 430.33C192.31 430.33 192.01 426.36 193.22 422.4C194.44 418.44 192.62 413.04 191.7 412.31C190.79 411.6 189.88 406.92 188.35 405.48C186.83 404.04 183.78 404.75 183.78 404.75C183.78 404.75 184.38 407.99 181.64 409.8C178.9 411.6 178.29 409.44 177.38 408.36C176.46 407.28 173.11 406.92 171.59 405.12C170.06 403.31 167.62 400.8 165.79 399.72C163.96 398.63 159.52 397.7 159.82 393.38C160.13 389.06 157.57 386.39 156.34 385.67C155.13 384.95 152.69 383.15 151.17 384.23C149.64 385.31 146.9 382.07 144.76 382.43C142.63 382.79 138.36 378.11 136.84 376.3C135.32 374.5 134.1 371.98 131.36 371.98C128.61 371.98 128.31 373.06 126.48 375.58C124.65 378.11 121.9 373.78 120.99 372.71C120.08 371.63 115.64 373.43 112.28 373.43C108.93 373.43 107.4 366.55 107.28 365.15C106.82 359.77 97.52 359.74 95.39 358.3C93.26 356.86 91.12 351.45 92.03 350.02C92.95 348.58 90.51 343.89 90.51 343.89C90.51 343.89 86.24 338.13 84.72 338.13C83.2 338.13 78.32 328.06 75.57 325.17C72.83 322.3 66.44 315.8 65.21 312.56C64 309.32 63.69 304.29 60.65 306.81C57.6 309.32 60.03 311.85 63.08 314.72C66.13 317.61 65.52 320.49 69.79 324.45C74.06 328.42 72.23 332.38 74.06 334.17C75.88 335.98 82.29 340.29 79.54 343.17C76.8 346.06 74.06 339.57 72.83 339.21C71.62 338.85 68.87 338.13 69.18 335.98C69.49 333.82 66.74 332.01 64.6 328.77C62.47 325.53 61.56 327.33 58.82 327.33C56.08 327.33 58.51 323.37 60.03 321.57C61.56 319.77 58.51 317.25 56.69 316.53C54.86 315.8 52.41 307.53 49.98 302.48C47.53 297.44 45.71 294.93 42.97 295.28C40.23 295.64 35.69 292.91 33.86 291.46C32.04 290.02 32.61 281.96 29.56 278.36C26.51 274.75 23.77 267.92 24.07 263.95C24.3 260.96 24.88 254.47 25.15 250.4C26.54 246.23 28.01 242.11 29.55 238.02C29.82 238.32 30.13 238.47 30.47 238.39C31.75 238.08 31.96 235.25 31.27 233.49C46.48 194.61 68.3 159.05 95.33 128.16C96.26 128.14 96.96 128.3 97.22 128.91C97.83 130.35 93.26 132.52 96 135.76C98.74 139 100.58 140.08 103.01 140.08C105.45 140.08 110.94 140.8 108.49 144.76C106.06 148.72 99.66 148.36 97.52 148.36C95.39 148.36 91.73 149.81 92.65 151.96C93.56 154.12 98.44 153.04 101.78 153.04C105.15 153.04 115.51 154.12 118.24 153.04C120.99 151.96 120.38 147.64 117.33 146.56C114.29 145.48 116.73 143.32 119.77 144.04C122.82 144.76 125.87 142.96 125.26 144.04C124.65 145.12 125.57 147.64 125.57 150.52C125.57 153.4 126.48 155.21 128.61 154.48C130.74 153.76 130.36 151.38 132.5 151.03C134.63 150.67 134.1 146.56 132.87 143.32C131.67 140.08 130.74 138.28 131.05 136.48C131.36 134.68 134.71 134.32 136.53 136.11C138.36 137.92 140.8 141.51 140.8 141.51C140.8 141.51 144.46 144.04 145.68 146.92C146.9 149.81 147.2 149.08 149.64 147.28C152.08 145.48 152.69 145.84 154.82 147.64C156.96 149.44 155.43 153.04 155.43 154.12C155.43 155.21 158.48 154.12 159.09 151.96C159.7 149.81 162.14 149.81 163.67 149.08C165.18 148.36 165.18 144.04 165.18 144.04C165.18 144.04 161.22 142.96 157.26 143.32C153.3 143.67 152.08 142.96 149.03 140.44C145.99 137.92 147.82 136.11 146.29 133.6C144.76 131.08 151.17 129.63 155.13 127.47C159.09 125.31 163.05 126.75 162.14 132.15C161.22 137.56 160.62 136.84 165.18 135.76C169.76 134.68 164.87 130 167.01 129.63C169.15 129.28 174.63 128.19 176.46 128.55C178.29 128.91 188.35 127.47 190.79 127.47C193.22 127.47 197.19 130 199.93 131.8C202.68 133.6 209.99 136.11 211.82 137.19C213.65 138.28 226.45 140.44 227.66 140.8C228.88 141.16 228.88 145.48 230.1 149.08C231.33 152.68 234.68 150.16 235.89 150.16C237.11 150.16 241.38 152.68 242.6 154.48C243.82 156.29 252.97 157.72 252.97 157.72C252.97 157.72 250.83 160.96 249.92 162.04C249 163.12 246.87 163.85 245.04 165.28C243.21 166.73 241.08 164.92 238.64 163.12C236.2 161.32 231.93 160.24 231.02 160.96C230.1 161.68 230.72 163.12 231.33 164.2C231.93 165.28 235.89 166.73 238.34 168.89C240.77 171.05 240.16 173.21 240.46 176.09C240.77 178.97 238.03 175 234.98 174.29C231.93 173.57 231.63 177.16 231.63 177.16C231.63 177.16 227.66 176.81 225.84 176.81C224.01 176.81 225.84 176.81 222.48 173.92C219.13 171.05 219.75 175.73 217.92 174.29C216.09 172.85 214.26 170.69 213.34 171.41C212.42 172.13 209.38 168.17 207.55 168.53C205.72 168.89 198.41 167.44 196.58 168.17C194.75 168.89 193.22 168.89 191.7 169.61C190.17 170.33 189.57 164.56 190.48 162.76C191.4 160.96 193.53 160.61 197.49 161.68C201.46 162.76 201.76 161.68 202.68 159.88C203.59 158.09 204.5 156.29 208.77 154.85C213.04 153.4 208.46 152.32 207.25 151.6C206.02 150.88 204.5 149.44 203.59 151.6C202.68 153.76 200.54 156.29 200.54 156.29C200.54 156.29 198.1 156.29 194.75 155.93C191.4 155.56 193.83 154.12 195.36 153.4C196.88 152.68 198.71 148.36 197.19 147.28C195.67 146.2 195.05 145.48 192.31 146.2C189.57 146.92 191.4 143.67 189.57 142.59C187.74 141.51 188.35 143.32 188.35 144.76C188.35 146.2 185.61 145.84 185.61 145.84C185.61 145.84 181.34 145.12 179.81 145.84C178.29 146.56 175.54 147.99 176.46 149.08C177.38 150.16 180.42 150.16 181.34 153.4C182.25 156.64 177.38 157.37 176.46 157.72C175.54 158.09 171.89 159.53 171.89 159.53C171.89 159.53 168.23 158.45 165.18 158.45C162.14 158.45 161.22 158.8 161.83 160.24C162.45 161.68 163.96 160.96 164.87 160.96C165.79 160.96 165.79 162.76 168.54 162.04C171.28 161.32 170.67 160.24 173.11 163.12C175.54 166 177.99 165.64 181.95 168.17C185.91 170.69 181.34 173.57 179.2 173.57C177.07 173.57 177.07 171.41 175.85 169.25C174.63 167.08 169.76 169.61 169.76 169.61C169.76 169.61 165.79 172.13 163.67 172.13C161.53 172.13 160.01 171.77 162.75 169.25C165.49 166.73 159.39 166.36 159.39 162.76C159.39 159.16 157.64 168.89 157.64 170.69C157.64 172.5 155.74 168.53 150.55 169.25C145.38 169.96 146.29 172.13 139.58 177.16C132.87 182.21 134.63 181.04 135.23 185.72C135.85 190.41 134.1 191.21 136.84 191.93C139.58 192.66 138.67 198.05 140.8 197.69C142.94 197.34 144.46 195.53 148.73 198.05C152.99 200.58 155.13 201.29 160.31 202.37C165.49 203.45 168.01 202.84 170.75 202.12C173.5 201.39 176.16 204.9 176.16 207.42C176.16 209.94 177.99 210.3 177.68 213.54C177.38 216.78 181.03 210.66 181.03 210.66C181.03 210.66 182.56 216.07 181.34 216.78C180.12 217.5 181.64 220.74 183.16 220.39C184.69 220.02 186.83 221.47 188.66 219.66C190.48 217.86 187.74 212.47 187.74 210.3C187.74 208.14 185.91 207.06 185 204.9C184.08 202.74 187.44 202.37 188.66 204.54C189.88 206.7 192.01 204.9 194.14 203.09C196.27 201.29 196.27 198.05 196.27 198.05C196.27 198.05 192.62 192.29 189.88 190.85C187.13 189.41 188.35 189.05 191.09 188.33C193.83 187.61 191.09 186.53 191.7 182.57C192.31 178.61 192.31 176.09 193.83 176.09C195.36 176.09 200.84 175 205.42 175.37C209.99 175.73 212.13 179.69 215.17 180.05C218.22 180.4 223.09 181.13 224.01 182.93C224.92 184.73 218.62 185.85 220.75 188.73C222.89 191.61 225.23 190.5 227.36 191.58C229.5 192.66 231.93 191.93 234.68 187.61C237.43 183.29 238.64 182.93 239.55 183.65C240.46 184.37 246.26 192.29 247.78 194.1C249.31 195.89 250.77 201.13 251.08 202.94C251.39 204.73 257.23 203.45 258.45 203.45C259.66 203.45 264.24 207.42 264.85 209.58C265.46 211.74 266.68 212.47 270.64 213.54C274.6 214.63 270.64 218.58 269.72 220.74C268.81 222.9 268.2 223.63 266.98 226.14C265.77 228.66 266.98 226.14 268.51 227.22C270.03 228.3 270.64 229.75 273.08 229.03C275.52 228.3 276.73 229.03 277.65 231.19C278.56 233.35 279.78 235.15 280.7 236.95C281.61 238.75 280.7 241.63 279.47 239.83C278.27 238.02 274.3 239.1 274.3 239.1C274.3 239.1 272.47 241.26 271.86 240.18C271.25 239.1 270.03 237.67 267.89 238.39C265.77 239.1 263.63 238.39 261.19 238.75C258.75 239.1 257.84 237.31 259.36 235.86C260.89 234.43 261.19 229.03 264.24 226.86C267.29 224.7 266.38 221.47 264.24 221.47C262.1 221.47 261.19 224.7 259.97 225.43C258.75 226.14 254.58 224.09 252.45 225.89C250.32 227.69 246.87 229.03 249 229.75C251.13 230.47 245.96 233.35 244.13 233.35C242.3 233.35 242.91 228.66 242.91 226.86C242.91 225.06 240.46 227.94 240.46 227.94C240.46 227.94 235.59 224.7 233.76 226.86C231.93 229.03 225.35 228.1 223.21 230.26C221.08 232.43 220.05 238.02 220.05 238.02C220.05 238.02 221.88 236.95 225.54 235.86C229.19 234.78 228.88 235.15 231.93 233.35C234.98 231.54 238.03 230.83 240.16 234.07C242.3 237.31 239.25 239.1 239.25 239.1C239.25 239.1 240.46 241.63 241.68 242.35C242.91 243.07 243.21 241.63 245.34 240.18C247.47 238.75 246.56 243.07 247.18 244.51C247.78 245.95 249.92 245.95 251.13 244.15C252.35 242.35 253.26 240.91 254.18 241.99C255.09 243.07 256.01 245.59 256.92 248.11C257.84 250.63 250.52 251.36 249.31 251.71C248.09 252.07 242.3 253.51 241.38 253.88C240.46 254.23 237.43 257.47 234.98 257.47C232.54 257.47 232.84 253.15 232.54 250.63C232.24 248.11 229.19 250.99 228.88 252.07C228.58 253.15 225.84 252.8 223.71 253.15C221.57 253.51 217.92 256.04 217.92 258.91C217.92 261.79 222.21 264.89 221.3 266.33C220.39 267.77 213.34 267.2 211.21 266.47C209.08 265.75 206.02 267.55 206.94 269C207.85 270.44 207.25 272.59 205.11 272.24C202.98 271.88 202.68 274.4 203.59 276.2C204.5 277.99 200.84 281.59 199.93 280.16C199.01 278.72 197.19 277.99 197.19 280.16C197.19 282.32 198.97 285.3 200.81 288.18C202.63 291.07 195.67 291.69 193.53 293.85C191.4 296.01 186.64 303.41 183.6 304.85C180.55 306.29 177.99 310.77 179.51 312.56C181.03 314.37 182.86 321.93 183.78 324.45C184.69 326.97 183.47 334.17 180.73 333.82C177.99 333.46 179.51 329.14 176.77 328.06C174.02 326.97 172.5 320.49 171.89 316.16C171.28 311.85 170.67 314.37 168.84 315.8C167.01 317.25 165.18 312.93 164.27 311.85C163.36 310.77 158.84 313.95 155.18 313.59C151.52 313.23 149.64 314.01 149.64 315.09C149.64 316.16 149.03 319.41 145.68 317.25C142.33 315.09 141.71 315.09 138.36 315.09C135.01 315.09 131.96 314.72 131.36 316.16C130.74 317.61 127.4 320.85 125.26 321.57C123.12 322.3 119.16 325.89 120.99 326.61C122.82 327.33 122.82 332.38 121.6 335.25C120.38 338.13 120.69 343.17 121.29 348.22C121.9 353.26 125.57 356.5 128.92 359.74C132.27 362.99 133.5 364.07 136.84 361.18C140.19 358.3 141.41 360.1 142.33 360.46C143.24 360.82 145.68 358.66 144.76 355.42C143.85 352.18 145.99 349.3 148.73 349.66C151.47 350.02 155.43 348.58 157.57 348.94C159.7 349.3 160.92 356.14 157.57 359.01C154.21 361.91 156.04 366.23 155.43 369.47C154.82 372.71 152.08 373.42 155.43 373.42C158.79 373.42 157.88 374.15 160.01 374.5C162.14 374.87 164.27 372.34 166.41 371.98C168.54 371.63 174.02 377.38 173.11 380.27C172.2 383.15 171.28 388.18 171.59 392.87C171.89 397.55 173.11 397.91 173.72 399.35C174.33 400.8 176.77 404.04 179.51 402.59C182.25 401.15 185 400.08 185.91 398.63C186.83 397.19 192.62 401.15 192.01 402.24C191.4 403.31 194.14 404.4 195.96 403.31C197.79 402.24 198.71 400.43 200.54 397.55C202.37 394.67 205.42 392.15 206.94 391.79C208.46 391.44 212.13 387.11 214.56 387.84C217 388.55 213.65 392.15 213.34 394.31C213.04 396.47 213.34 402.59 214.56 402.95C215.78 403.31 215.17 398.63 216.69 395.39C218.22 392.15 221.26 390.34 222.79 390.34C224.31 390.34 225.54 397.91 227.66 395.75C229.8 393.59 234.07 393.95 234.98 396.11C235.89 398.27 236.81 399.35 236.81 399.35C236.81 399.35 238.34 397.91 238.34 396.11C238.34 394.31 243.21 392.5 246.26 394.67C249.31 396.83 248.09 397.55 249.61 397.91C251.13 398.27 252.66 393.23 253.57 392.87C254.48 392.5 253.57 398.63 251.44 401.87C249.31 405.12 253.26 404.04 253.26 404.04L254.18 405.12C255.09 406.2 258.14 404.04 259.36 406.2C260.58 408.36 262.72 409.07 264.55 413.04C266.38 417 268.47 413.49 272.12 412.78C275.78 412.05 281.01 417.36 284.66 422.04C288.31 426.72 287.71 430.33 290.14 430.33C292.59 430.33 293.19 434.28 293.19 435.72C293.19 437.16 287.71 440.41 284.66 441.13C281.61 441.85 281.61 445.45 286.49 444.37C291.37 443.29 289.23 441.13 292.28 440.05C295.33 438.96 298.38 441.49 295.63 445.81C292.89 450.12 287.4 450.49 292.28 451.2C297.16 451.93 294.41 450.49 297.16 446.17C299.9 441.85 299.59 443.29 301.43 443.29C303.25 443.29 307.21 444.37 308.74 445.81C310.27 447.25 314.22 449.41 316.66 451.2C319.09 453.01 322.15 452.28 323.97 451.57C325.8 450.85 330.98 453.73 332.81 456.61C334.64 459.5 339.22 459.85 341.35 460.93C343.48 462.01 346.83 466.33 347.14 469.93ZM234.07 366.24C230.72 367.42 230.06 360.99 232.84 360.39C235.59 359.81 237.43 365.08 234.07 366.24ZM193.83 370.21C190.48 371.38 189.82 364.95 192.62 364.36C195.36 363.77 197.19 369.04 193.83 370.21ZM191.09 334.53C193.83 334.17 195.67 337.41 192.31 338.13C188.96 338.85 188.3 334.89 191.09 334.53ZM194.75 354.34C193.22 352.9 187.74 350.02 186.52 348.22C185.3 346.42 178.9 347.14 175.25 347.14C171.59 347.14 168.54 348.22 168.84 344.62C168.84 344.62 176.16 342.1 177.99 342.1C179.81 342.1 184.38 342.1 186.83 344.62C189.26 347.14 193.83 350.02 195.96 349.66C198.1 349.3 201.76 353.26 201.46 354.69C201.15 356.14 196.27 355.78 194.75 354.34ZM376.06 138.64C376.79 139.59 377.36 143.2 373.64 144.17C369.93 145.12 368.63 142 368.81 139.59C368.99 137.19 362.21 134.35 361.47 134.35C360.73 134.35 361.19 141.76 363.98 141.76C366.76 141.76 368.63 145.12 369.93 146.56C371.22 147.99 367.14 147.99 365.47 147.76C363.8 147.52 358.59 151.12 353.76 152.08C348.94 153.04 343.56 151.87 341.52 152.12C339.47 152.35 336.3 159.53 335.56 160.72C334.81 161.93 328.13 160.72 325.71 160.72C323.29 160.72 321.25 163.85 317.35 164.56C313.45 165.28 315.49 168.17 315.68 170.57C315.86 172.96 314.56 174.16 312.14 173.44C309.73 172.73 309.92 174.41 309.73 176.57C309.55 178.73 310.1 181.61 307.87 183.77C305.64 185.93 304.71 186.65 302.12 186.41C299.51 186.17 299.7 180.9 298.78 181.13C297.84 181.37 293.38 184.73 292.64 182.81C291.89 180.89 286.13 176.57 284.09 175.6C282.05 174.64 280.57 170.57 279.63 168.89C278.71 167.2 282.42 166.97 281.31 166.73C280.19 166.49 276.29 165.28 275.55 164.09C274.81 162.88 272.4 157.13 272.2 155.44C272.02 153.76 275.18 150.88 275.18 149.92C275.18 148.96 272.2 148.96 270.91 148.96C269.6 148.96 268.12 145.36 269.98 141.76C271.83 138.16 274.62 139.12 274.62 139.12L277.41 139.12C278.88 139.12 278.53 143.2 277.78 145.12C277.04 147.04 278.9 146.8 280.01 147.76C281.12 148.72 281.67 146.08 281.87 144.4C282.05 142.72 279.08 138.64 277.78 136.96C276.48 135.28 272.58 134.56 271.83 135.76C271.09 136.96 267.93 142 267 140.8C266.08 139.59 265.89 128.79 264.22 125.67C262.54 122.56 256.6 121.59 254.19 120.15C251.77 118.71 243.04 117.27 241.56 117.03C240.07 116.8 234.49 118.48 232.27 117.51C230.03 116.55 230.03 111.75 230.03 111.75C230.03 111.75 228.73 116.8 227.81 118.23C226.88 119.68 224.83 120.39 223.35 119.68C221.86 118.95 219.63 113.67 216.85 112.95C214.06 112.24 212.76 113.43 210.52 111.51C207.18 108.63 216.29 108.87 216.85 108.87C217.4 108.87 224.46 107.19 224.65 104.78C224.83 102.39 227.06 99.98 230.22 100.7C233.38 101.43 234.68 98.06 234.31 95.18C233.94 92.3 239.88 89.19 241.19 90.63C242.48 92.06 247.5 90.38 245.82 87.5C244.15 84.62 252.33 81.75 259.76 81.26C267.19 80.79 269.05 81.75 270.91 82.94C272.76 84.14 279.08 84.62 281.31 81.26C283.54 77.9 281.12 73.1 283.73 71.18C286.32 69.26 286.7 74.06 288.74 75.98C290.79 77.9 292.83 70.69 295.05 67.82C295.46 67.29 300.46 66.99 304.36 64.16C308.79 60.94 315.53 61.33 321.18 61.16C325.6 61.03 328.46 59.44 332.88 59.71C338.51 60.04 345.64 62.32 350.35 62.94C351.64 63.11 354.58 64.82 350.92 65.53C347.27 66.25 339.84 68.03 335.42 68.81C329.67 69.83 322.25 68.63 323.3 68.81C324.64 69.04 331.96 72.26 341.06 69.9C342.11 69.63 345.85 67.06 350.01 68.18C352.13 68.74 354.54 66.11 358.25 65.17C361.08 64.46 365.65 65.42 365.65 65.42L369.56 64.7C373.45 63.97 371.21 73.35 374.89 78.1C377.42 81.38 378.1 87.74 382.56 88.94C387.02 90.14 389.24 86.55 393.15 82.7C397.04 78.86 402.99 81.02 405.96 82.22C408.94 83.42 405.96 88.94 401.69 90.38C397.41 91.82 389.61 101.19 388.13 102.62C386.65 104.07 384.23 106.71 385.53 110.31C386.83 113.91 388.5 112.24 389.8 112.95C391.1 113.67 388.69 115.11 387.57 117.27C386.46 119.43 386.27 123.51 386.46 127.36C386.65 131.19 379.31 125.68 375.4 126.16C371.5 126.64 373.27 131.91 374.01 133.6C374.75 135.27 375.31 137.68 376.06 138.64ZM413.11 167.93C413.11 167.93 407.62 168.17 406.81 169.61C406 171.05 403.16 171.77 399.7 172.96C396.25 174.17 394.62 172.49 394.02 170.57C393.4 168.64 388.52 168.89 387.1 169.13C385.68 169.36 384.46 167.44 382.83 164.09C381.21 160.72 382.83 160.65 383.65 159.04C384.25 157.85 390.97 158.8 392.59 160.72C394.22 162.64 396.86 160.72 400.92 160.72C404.98 160.72 406.81 158.8 408.64 159.04C410.48 159.28 414.33 160.48 415.95 162.17C417.59 163.85 413.11 167.93 413.11 167.93ZM121.81 106.71C121.81 107.43 126.14 108.37 128.71 109.11C133.79 110.55 133.39 110.55 135.83 111.03C138.27 111.51 142.33 115.35 144.15 116.55C145.99 117.76 147.82 119.91 150.25 119.68C152.69 119.43 156.55 119.43 159.6 119.68C162.64 119.91 173.01 119.91 174.84 119.68C176.67 119.43 184.19 121.35 183.78 122.32C183.37 123.28 182.76 124.72 178.9 124.96C175.04 125.2 168.14 124.47 163.46 123.99C158.79 123.51 154.32 124.72 154.32 124.72L147.82 123.99C147.82 123.99 142.33 122.07 140.7 119.68C139.07 117.27 134 117.03 131.36 115.84C128.71 114.63 125.06 112.47 122.82 111.27C120.58 110.07 121.81 105.99 121.81 106.71ZM127.08 121.35C128.1 118.48 133.18 119.43 134.2 122.32C135.22 125.2 126.2 123.87 127.08 121.35ZM127.7 131.44C127.08 129.75 133.39 126.64 135.22 125.92C137.05 125.2 138.67 127.36 140.7 127.59C142.73 127.83 142.33 131.44 140.5 131.68C138.67 131.91 134.8 132.39 132.17 132.88C129.53 133.35 127.93 132.1 127.7 131.44ZM120.99 128.55C122.61 129.75 123.84 135.04 122.82 135.28C121.81 135.52 122.01 137.44 118.35 139.6C114.69 141.76 113.27 135.28 112.86 133.84C112.46 132.39 108.6 134.32 106.37 134.07C104.12 133.84 103.33 130.34 104.74 129.28C106.97 127.59 111.24 129.52 112.66 128.8C114.08 128.08 119.36 127.36 120.99 128.55ZM102.12 120.64C103.67 118.96 105.23 117.29 106.82 115.65C109.88 115.7 112.87 115.79 114.49 115.59C118.35 115.11 119.98 117.51 119.77 118.71C119.57 119.92 117.33 123.51 114.49 123.28C111.65 123.03 111.65 124.23 110.63 121.59C109.62 118.97 103.4 120.62 102.12 120.64ZM97.54 125.67C98.66 124.42 99.78 123.16 100.92 121.93C100.21 123.31 99.5 125.36 98.44 125.67C98.1 125.77 97.8 125.76 97.54 125.67ZM113.67 111.99C112.71 111.99 111.89 111.83 110.78 111.59C111.88 110.48 112.99 109.39 114.1 108.3C114.85 110.14 114.93 111.99 113.67 111.99ZM184.6 179.93C182.56 180.89 179.53 178.14 182.76 177.05C185.61 176.09 186.62 178.97 184.6 179.93ZM175.44 176.09C174.63 177.53 170.14 175.97 170.97 174.89C173.01 172.24 176.26 174.65 175.44 176.09ZM145.38 236.23C145.38 238.17 148.42 238.39 150.25 237.31C152.08 236.23 154.82 235.51 156.04 235.15C157.26 234.78 156.65 236.95 159.39 236.95C162.14 236.95 165.49 238.02 166.41 237.67C167.32 237.31 170.06 232.99 167.93 232.62C165.79 232.27 162.45 229.75 160.62 227.59C158.79 225.43 154.52 230.47 150.55 232.27C146.59 234.07 145.38 233.35 145.38 236.23ZM165.79 240.55C163.36 240.91 159.7 241.99 158.48 244.87C157.26 247.75 158.48 253.15 158.17 255.31C157.88 257.47 157.26 263.59 160.01 263.95C163.05 264.35 163.05 259.28 162.75 257.83C162.45 256.39 162.45 250.27 163.67 249.19C164.87 248.11 166.41 244.87 169.76 244.51C173.11 244.15 175.25 247.03 174.93 250.27C174.63 253.51 175.54 256.75 176.77 256.75C177.99 256.75 181.64 254.23 180.42 252.07C179.2 249.91 181.34 242.7 181.34 245.23C181.34 247.75 183.78 249.55 185.3 249.19C186.83 248.83 183.78 242.35 181.64 241.99C179.51 241.63 175.25 241.63 174.33 241.99C173.42 242.35 168.23 240.18 165.79 240.55ZM183.47 258.2C183.47 258.2 177.99 260.71 177.68 261.79C177.38 262.87 176.16 261.79 177.07 263.95C177.77 265.6 181.03 264.31 182.86 262.15C184.69 259.99 188.66 259.28 189.88 257.47C191.09 255.67 192.01 256.04 195.05 254.59C198.1 253.15 200.54 252.8 199.32 250.99C198.1 249.19 191.7 250.99 190.79 250.27C189.88 249.55 183.47 258.2 183.47 258.2ZM225.23 363.35C224.92 368.02 223.4 363.71 222.17 363.71C220.97 363.71 217.61 366.23 215.78 365.15C213.95 364.07 212.73 362.62 210.59 362.62C208.46 362.62 205.11 361.91 205.11 361.91C205.11 361.91 210.29 356.5 212.13 356.14C213.95 355.78 216.69 355.05 219.13 355.78C221.57 356.5 225.54 358.66 225.23 363.35Z" />
		<path id="Path 7" fill-rule="evenodd" class="shp5" d="M347.14 469.93C347.44 473.53 343.79 481.1 343.48 482.9C343.19 484.69 338.31 491.18 333.73 495.5C329.16 499.82 331.9 504.87 332.21 507.03C332.51 509.19 329.16 517.1 330.07 518.91C330.98 520.71 328.85 524.67 327.02 527.19C325.19 529.72 323.97 534.39 322.76 536.55C321.54 538.71 317.58 537.99 313.92 539.07C310.27 540.15 308.43 541.23 308.43 541.23C308.43 541.23 302.03 544.84 298.38 547.72C294.73 550.59 299.59 555.64 297.76 559.6C295.93 563.56 294.44 560.02 292.61 564.7C290.79 569.38 289.53 568.61 288.01 569.68C286.49 570.77 285.57 573.64 285.27 576.52C284.97 579.4 281.92 582.28 277.96 586.61C273.99 590.92 271.55 590.21 267.29 588.77C263.02 587.33 263.63 575.09 263.02 576.88C262.41 578.68 260.31 584.92 260.92 586.01C261.52 587.08 265.77 591.29 267.29 592.37C268.81 593.45 268.51 595.25 267.29 597.06C266.07 598.85 262.72 605.34 261.5 605.7C260.28 606.05 250.83 607.5 249 606.42C247.18 605.34 246.26 608.94 246.56 611.1C246.87 613.26 248.39 615.77 245.04 615.06C241.68 614.34 237.11 611.82 237.11 613.61C237.11 615.42 238.03 619.38 239.86 619.38C241.68 619.38 243.52 617.94 242.6 620.46C241.68 622.98 239.25 625.14 238.03 626.22C236.81 627.31 235.29 630.9 232.24 633.42C229.19 635.94 229.19 637.38 229.8 638.46C230.41 639.54 234.98 638.83 235.89 639.54C236.81 640.26 234.98 645.31 233.76 646.39C233.25 646.85 232.01 648.02 230.6 649.33C227.89 648.14 225.18 646.93 222.49 645.64C215.11 642.09 207.88 638.23 200.81 634.11C201.33 632.83 202.47 631.39 203.89 629.47C206.02 626.58 207.55 622.98 207.55 621.9C207.55 620.82 206.02 616.86 206.02 613.98C206.02 611.1 207.55 610.02 208.16 606.05C208.77 602.1 206.02 603.54 206.02 600.29C206.02 597.06 209.08 598.13 208.46 594.89C207.85 591.66 209.99 589.49 210.9 587.33C211.82 585.16 212.73 581.57 213.95 579.05C215.18 576.52 212.73 570.77 212.73 569.68C212.73 568.61 216.69 567.16 214.87 565C213.04 562.84 216.46 562.12 218.3 560.32C220.12 558.52 217 552.4 217.92 545.92C218.83 539.43 219.75 528.27 219.75 527.19C219.75 526.11 220.05 521.79 218.52 518.91C217 516.02 215.18 513.86 213.04 512.78C210.9 511.71 208.16 508.46 206.63 508.11C205.12 507.74 195.89 504.71 195.89 499.66C195.89 494.62 192.62 490.46 192.01 486.86C191.4 483.26 186.83 475.34 186.52 471.74C186.21 468.14 179.81 467.06 178.9 463.09C177.99 459.13 180.26 456.56 180.86 454.04C181.48 451.51 180.42 445.81 180.12 444.01C179.81 442.21 182.86 436.26 184.69 435.18C186.52 434.1 189.88 430.33 191.09 430.33C192.31 430.33 192.01 426.36 193.23 422.4C194.44 418.44 192.62 413.04 191.7 412.32C190.79 411.6 189.88 406.92 188.35 405.48C186.83 404.04 183.78 404.76 183.78 404.76C183.78 404.76 184.38 407.99 181.64 409.8C178.9 411.6 178.29 409.44 177.38 408.36C176.46 407.28 173.11 406.92 171.59 405.12C170.06 403.31 167.62 400.8 165.79 399.72C163.96 398.63 159.52 397.7 159.83 393.38C160.13 389.06 157.57 386.39 156.34 385.68C155.13 384.95 152.69 383.15 151.17 384.23C149.64 385.31 146.9 382.07 144.76 382.43C142.63 382.79 138.37 378.11 136.84 376.3C135.32 374.5 134.1 371.98 131.36 371.98C128.61 371.98 128.31 373.06 126.48 375.58C124.65 378.11 121.9 373.79 120.99 372.71C120.08 371.63 115.64 373.43 112.28 373.43C108.93 373.43 107.4 366.55 107.28 365.15C106.82 359.77 97.52 359.74 95.39 358.3C93.26 356.86 91.12 351.45 92.03 350.02C92.95 348.58 90.51 343.9 90.51 343.9C90.51 343.9 86.24 338.13 84.73 338.13C83.2 338.13 78.32 328.06 75.57 325.17C72.83 322.3 66.44 315.8 65.21 312.56C64 309.32 63.69 304.29 60.65 306.81C57.6 309.32 60.03 311.85 63.08 314.72C66.13 317.61 65.52 320.49 69.79 324.45C74.06 328.42 72.23 332.38 74.06 334.17C75.88 335.98 82.29 340.29 79.54 343.18C76.8 346.06 74.06 339.57 72.83 339.21C71.62 338.85 68.87 338.13 69.18 335.98C69.49 333.82 66.74 332.01 64.6 328.77C62.47 325.53 61.56 327.33 58.82 327.33C56.08 327.33 58.51 323.37 60.03 321.57C61.56 319.77 58.51 317.25 56.69 316.53C54.86 315.8 52.41 307.53 49.98 302.49C47.53 297.44 45.71 294.93 42.97 295.28C42.89 295.29 42.79 295.27 42.71 295.28C49.15 254.05 62.89 213.94 83.47 177.63C88.21 169.27 93.35 161.14 98.78 153.2C99.82 153.12 100.86 153.04 101.78 153.04C105.15 153.04 115.51 154.12 118.25 153.04C120.99 151.96 120.38 147.64 117.33 146.56C114.29 145.48 116.73 143.32 119.77 144.04C122.82 144.76 125.87 142.96 125.26 144.04C124.65 145.12 125.57 147.64 125.57 150.52C125.57 153.4 126.48 155.21 128.61 154.48C130.74 153.76 130.36 151.38 132.5 151.03C134.63 150.67 134.1 146.56 132.87 143.32C131.67 140.08 130.74 138.28 131.05 136.48C131.36 134.68 134.71 134.32 136.53 136.11C138.37 137.92 140.8 141.51 140.8 141.51C140.8 141.51 144.46 144.04 145.68 146.92C146.9 149.81 147.2 149.08 149.64 147.28C152.08 145.48 152.69 145.84 154.82 147.64C156.96 149.44 155.43 153.04 155.43 154.12C155.43 155.21 158.48 154.12 159.09 151.96C159.7 149.81 162.14 149.81 163.67 149.08C165.18 148.36 165.18 144.04 165.18 144.04C165.18 144.04 161.22 142.96 157.26 143.32C153.3 143.67 152.08 142.96 149.03 140.44C145.99 137.92 147.82 136.11 146.29 133.6C144.76 131.08 151.17 129.63 155.13 127.47C159.09 125.31 163.05 126.75 162.14 132.15C161.22 137.56 160.62 136.84 165.18 135.77C169.76 134.68 164.88 130 167.01 129.63C169.15 129.28 174.63 128.19 176.46 128.55C178.29 128.91 188.35 127.47 190.79 127.47C193.23 127.47 197.19 130 199.93 131.8C202.68 133.6 209.99 136.11 211.82 137.19C213.65 138.28 226.45 140.44 227.67 140.8C228.88 141.16 228.88 145.48 230.1 149.08C231.33 152.69 234.68 150.16 235.89 150.16C237.11 150.16 241.38 152.69 242.6 154.48C243.82 156.29 252.97 157.72 252.97 157.72C252.97 157.72 250.83 160.96 249.92 162.04C249 163.13 246.87 163.85 245.04 165.28C243.21 166.73 241.08 164.93 238.64 163.13C236.2 161.32 231.93 160.24 231.02 160.96C230.1 161.69 230.72 163.13 231.33 164.2C231.93 165.28 235.89 166.73 238.34 168.89C240.77 171.05 240.17 173.21 240.46 176.09C240.77 178.97 238.03 175 234.98 174.29C231.93 173.57 231.63 177.16 231.63 177.16C231.63 177.16 227.67 176.81 225.84 176.81C224.01 176.81 225.84 176.81 222.48 173.93C219.13 171.05 219.75 175.73 217.92 174.29C216.09 172.85 214.26 170.69 213.34 171.41C212.42 172.13 209.38 168.17 207.55 168.53C205.72 168.89 198.41 167.44 196.58 168.17C194.75 168.89 193.23 168.89 191.7 169.61C190.17 170.33 189.57 164.56 190.48 162.77C191.4 160.96 193.53 160.61 197.49 161.69C201.46 162.77 201.76 161.69 202.68 159.88C203.59 158.09 204.5 156.29 208.77 154.85C213.04 153.4 208.46 152.32 207.25 151.6C206.02 150.89 204.5 149.44 203.59 151.6C202.68 153.76 200.54 156.29 200.54 156.29C200.54 156.29 198.1 156.29 194.75 155.93C191.4 155.56 193.83 154.12 195.36 153.4C196.88 152.69 198.71 148.36 197.19 147.28C195.67 146.2 195.05 145.48 192.31 146.2C189.57 146.92 191.4 143.67 189.57 142.59C187.74 141.51 188.35 143.32 188.35 144.76C188.35 146.2 185.61 145.84 185.61 145.84C185.61 145.84 181.34 145.12 179.81 145.84C178.29 146.56 175.54 148 176.46 149.08C177.38 150.16 180.42 150.16 181.34 153.4C182.25 156.64 177.38 157.37 176.46 157.72C175.54 158.09 171.89 159.53 171.89 159.53C171.89 159.53 168.23 158.45 165.18 158.45C162.14 158.45 161.22 158.8 161.83 160.24C162.45 161.69 163.96 160.96 164.88 160.96C165.79 160.96 165.79 162.77 168.54 162.04C171.28 161.32 170.67 160.24 173.11 163.13C175.54 166 177.99 165.64 181.95 168.17C185.91 170.69 181.34 173.57 179.2 173.57C177.07 173.57 177.07 171.41 175.85 169.25C174.63 167.08 169.76 169.61 169.76 169.61C169.76 169.61 165.79 172.13 163.67 172.13C161.53 172.13 160.01 171.77 162.75 169.25C165.49 166.73 159.39 166.36 159.39 162.77C159.39 159.16 157.64 168.9 157.64 170.7C157.64 172.5 155.74 168.53 150.56 169.25C145.38 169.96 146.29 172.13 139.58 177.16C132.87 182.21 134.63 181.04 135.23 185.72C135.85 190.41 134.1 191.21 136.84 191.94C139.58 192.66 138.67 198.05 140.8 197.69C142.94 197.34 144.46 195.53 148.73 198.05C152.99 200.58 155.13 201.29 160.31 202.37C165.49 203.45 168.01 202.84 170.75 202.12C173.5 201.4 176.16 204.9 176.16 207.42C176.16 209.94 177.99 210.3 177.68 213.55C177.38 216.78 181.03 210.66 181.03 210.66C181.03 210.66 182.56 216.07 181.34 216.78C180.12 217.5 181.64 220.74 183.16 220.39C184.69 220.02 186.83 221.47 188.66 219.66C190.48 217.86 187.74 212.47 187.74 210.3C187.74 208.14 185.91 207.06 185 204.9C184.08 202.74 187.44 202.37 188.66 204.54C189.88 206.7 192.01 204.9 194.14 203.09C196.27 201.29 196.27 198.05 196.27 198.05C196.27 198.05 192.62 192.29 189.88 190.85C187.13 189.41 188.35 189.05 191.09 188.33C193.83 187.61 191.09 186.53 191.7 182.57C192.31 178.61 192.31 176.09 193.83 176.09C195.36 176.09 200.84 175 205.42 175.37C209.99 175.73 212.13 179.69 215.18 180.05C218.22 180.4 223.09 181.13 224.01 182.93C224.92 184.73 218.62 185.85 220.75 188.73C222.89 191.61 225.23 190.5 227.36 191.58C229.5 192.66 231.93 191.94 234.68 187.61C237.43 183.29 238.64 182.93 239.55 183.65C240.46 184.37 246.26 192.29 247.78 194.1C249.31 195.9 250.78 201.13 251.08 202.94C251.39 204.73 257.23 203.45 258.45 203.45C259.66 203.45 264.24 207.42 264.85 209.58C265.46 211.74 266.68 212.47 270.64 213.55C274.6 214.63 270.64 218.58 269.72 220.74C268.81 222.9 268.2 223.63 266.98 226.14C265.77 228.66 266.98 226.14 268.51 227.22C270.03 228.31 270.64 229.75 273.08 229.03C275.52 228.31 276.73 229.03 277.65 231.19C278.56 233.35 279.78 235.15 280.7 236.95C281.61 238.75 280.7 241.63 279.47 239.83C278.27 238.02 274.3 239.1 274.3 239.1C274.3 239.1 272.47 241.26 271.86 240.18C271.25 239.1 270.03 237.67 267.89 238.39C265.77 239.1 263.63 238.39 261.19 238.75C258.75 239.1 257.84 237.31 259.36 235.86C260.89 234.43 261.19 229.03 264.24 226.86C267.29 224.7 266.38 221.47 264.24 221.47C262.1 221.47 261.19 224.7 259.97 225.43C258.75 226.14 254.59 224.09 252.45 225.89C250.32 227.69 246.87 229.03 249 229.75C251.13 230.47 245.96 233.35 244.13 233.35C242.3 233.35 242.91 228.66 242.91 226.86C242.91 225.06 240.46 227.94 240.46 227.94C240.46 227.94 235.59 224.7 233.76 226.86C231.93 229.03 225.35 228.1 223.21 230.26C221.08 232.43 220.05 238.02 220.05 238.02C220.05 238.02 221.88 236.95 225.54 235.86C229.19 234.79 228.88 235.15 231.93 233.35C234.98 231.54 238.03 230.83 240.17 234.07C242.3 237.31 239.25 239.1 239.25 239.1C239.25 239.1 240.46 241.63 241.68 242.35C242.91 243.07 243.21 241.63 245.34 240.18C247.47 238.75 246.56 243.07 247.18 244.51C247.78 245.95 249.92 245.95 251.13 244.15C252.35 242.35 253.26 240.91 254.18 241.99C255.09 243.07 256.01 245.59 256.92 248.11C257.84 250.63 250.52 251.36 249.31 251.71C248.09 252.07 242.3 253.51 241.38 253.88C240.46 254.23 237.43 257.47 234.98 257.47C232.54 257.47 232.85 253.15 232.54 250.63C232.24 248.11 229.19 250.99 228.88 252.07C228.58 253.15 225.84 252.8 223.71 253.15C221.57 253.51 217.92 256.04 217.92 258.91C217.92 261.79 222.21 264.89 221.3 266.33C220.39 267.77 213.34 267.2 211.21 266.47C209.08 265.76 206.02 267.55 206.94 269C207.85 270.44 207.25 272.59 205.12 272.24C202.98 271.88 202.68 274.4 203.59 276.2C204.5 277.99 200.84 281.6 199.93 280.16C199.01 278.72 197.19 277.99 197.19 280.16C197.19 282.32 198.97 285.3 200.81 288.19C202.63 291.07 195.67 291.69 193.53 293.85C191.4 296.01 186.64 303.41 183.6 304.85C180.55 306.29 177.99 310.77 179.51 312.56C181.03 314.37 182.87 321.93 183.78 324.45C184.69 326.98 183.47 334.17 180.73 333.82C177.99 333.46 179.51 329.14 176.77 328.06C174.02 326.98 172.5 320.49 171.89 316.17C171.28 311.85 170.67 314.37 168.84 315.8C167.01 317.25 165.18 312.93 164.27 311.85C163.36 310.77 158.84 313.95 155.18 313.59C151.52 313.23 149.64 314.01 149.64 315.09C149.64 316.17 149.03 319.41 145.68 317.25C142.33 315.09 141.71 315.09 138.37 315.09C135.01 315.09 131.96 314.72 131.36 316.17C130.74 317.61 127.4 320.85 125.26 321.57C123.12 322.3 119.16 325.89 120.99 326.61C122.82 327.33 122.82 332.38 121.6 335.25C120.38 338.13 120.69 343.18 121.29 348.22C121.9 353.26 125.57 356.5 128.92 359.74C132.27 362.99 133.5 364.07 136.84 361.18C140.19 358.3 141.41 360.1 142.33 360.47C143.24 360.82 145.68 358.66 144.76 355.42C143.85 352.18 145.99 349.3 148.73 349.66C151.47 350.02 155.43 348.58 157.57 348.94C159.7 349.3 160.92 356.14 157.57 359.02C154.21 361.91 156.04 366.23 155.43 369.47C154.82 372.71 152.08 373.42 155.43 373.42C158.79 373.42 157.88 374.15 160.01 374.5C162.14 374.87 164.27 372.34 166.41 371.98C168.54 371.63 174.02 377.38 173.11 380.27C172.2 383.15 171.28 388.18 171.59 392.87C171.89 397.55 173.11 397.91 173.72 399.35C174.33 400.8 176.77 404.04 179.51 402.59C182.25 401.15 185 400.08 185.91 398.63C186.83 397.19 192.62 401.15 192.01 402.24C191.4 403.31 194.14 404.4 195.96 403.31C197.79 402.24 198.71 400.43 200.54 397.55C202.37 394.67 205.42 392.15 206.94 391.79C208.46 391.44 212.13 387.11 214.56 387.84C217 388.55 213.65 392.15 213.34 394.31C213.04 396.47 213.34 402.59 214.56 402.95C215.78 403.31 215.18 398.63 216.69 395.39C218.22 392.15 221.26 390.34 222.79 390.34C224.31 390.34 225.54 397.91 227.67 395.75C229.8 393.6 234.07 393.95 234.98 396.11C235.89 398.27 236.81 399.35 236.81 399.35C236.81 399.35 238.34 397.91 238.34 396.11C238.34 394.31 243.21 392.5 246.26 394.67C249.31 396.83 248.09 397.55 249.61 397.91C251.13 398.27 252.66 393.23 253.57 392.87C254.48 392.5 253.57 398.63 251.44 401.88C249.31 405.12 253.26 404.04 253.26 404.04L254.18 405.12C255.09 406.2 258.14 404.04 259.36 406.2C260.58 408.36 262.72 409.07 264.55 413.04C266.38 417 268.47 413.49 272.12 412.78C275.78 412.05 281.01 417.36 284.66 422.04C288.31 426.72 287.71 430.33 290.14 430.33C292.59 430.33 293.19 434.28 293.19 435.72C293.19 437.16 287.71 440.41 284.66 441.13C281.61 441.85 281.61 445.45 286.49 444.37C291.37 443.29 289.23 441.13 292.28 440.05C295.33 438.96 298.38 441.49 295.64 445.81C292.89 450.12 287.4 450.49 292.28 451.2C297.16 451.93 294.41 450.49 297.16 446.17C299.9 441.85 299.59 443.29 301.43 443.29C303.26 443.29 307.21 444.37 308.74 445.81C310.27 447.25 314.22 449.41 316.66 451.2C319.09 453.01 322.15 452.28 323.97 451.57C325.8 450.85 330.98 453.73 332.81 456.61C334.64 459.5 339.22 459.85 341.35 460.93C343.48 462.01 346.83 466.33 347.14 469.93ZM175.44 176.09C174.63 177.53 170.15 175.97 170.97 174.89C173.01 172.24 176.26 174.65 175.44 176.09ZM102.25 148.13C103.98 145.7 105.77 143.31 107.56 140.92C108.94 141.6 109.72 142.77 108.49 144.76C107.15 146.94 104.62 147.79 102.25 148.13ZM127.08 121.35C128.1 118.48 133.18 119.43 134.2 122.32C135.22 125.2 126.2 123.88 127.08 121.35ZM112.9 134C114.52 131.96 116.13 129.92 117.79 127.92C119.12 127.91 120.35 128.08 120.99 128.55C122.61 129.75 123.84 135.04 122.82 135.28C121.81 135.52 122.01 137.44 118.35 139.6C114.8 141.69 113.36 135.68 112.9 134ZM234.07 366.24C230.72 367.42 230.06 360.99 232.85 360.4C235.59 359.81 237.43 365.08 234.07 366.24ZM225.23 363.35C224.92 368.02 223.4 363.71 222.18 363.71C220.97 363.71 217.61 366.23 215.78 365.15C213.95 364.07 212.73 362.62 210.59 362.62C208.46 362.62 205.12 361.91 205.12 361.91C205.12 361.91 210.29 356.5 212.13 356.14C213.95 355.78 216.69 355.06 219.13 355.78C221.57 356.5 225.54 358.66 225.23 363.35ZM645.21 317.61C645.83 321.21 652.54 325.89 652.54 328.42C652.54 330.93 653.75 331.66 657.1 334.9C660.46 338.13 657.72 339.94 659.84 340.65C661.98 341.37 665.03 337.77 668.08 335.98C671.13 334.17 670.82 331.66 672.35 331.66C673.87 331.66 673.56 336.33 676 336.69C676.46 336.76 677.07 336.97 677.75 337.29C677.3 346.42 676.44 355.51 675.2 364.55C672.28 367.37 669.05 370.96 664.72 371.98C660.15 373.06 659.55 375.94 655.89 376.3C652.24 376.66 642.17 382.43 640.65 383.51C639.12 384.6 630.89 387.47 628.46 386.39C626.01 385.31 625.1 378.11 624.19 372.71C623.27 367.31 622.06 364.42 621.15 362.27C620.23 360.1 614.74 354.34 613.52 353.26C612.3 352.18 609.26 343.54 608.95 339.94C608.64 336.33 605.3 337.77 604.69 333.82C604.07 329.85 600.71 324.45 600.11 321.93C599.62 319.88 595.51 321.4 592.68 322.23C593.24 323.28 593.8 324.38 594.32 325.53C596.46 330.21 598.58 336.69 601.02 341.74C603.47 346.79 600.74 356.9 603.18 360.13C605.62 363.38 612 366.23 613.52 370.55C615.05 374.87 618.7 379.19 619.93 379.55C621.15 379.91 626.33 388.18 626.63 390.34C626.93 392.5 624.8 397.19 629.67 397.55C634.56 397.91 638.82 395.03 640.35 394.31C641.87 393.6 653.75 388.18 655.28 390.34C656.8 392.5 653.15 401.88 652.84 404.4C652.54 406.92 643.69 419.16 643.38 422.4C643.09 425.65 637.9 431.41 634.56 432.13C631.2 432.84 624.19 442.93 621.75 446.17C619.31 449.41 615.35 456.61 613.52 457.33C611.69 458.05 610.29 467.62 611.2 469.06C612.11 470.49 612.3 477.14 615.05 480.02C617.79 482.9 618.7 485.06 617.48 487.58C616.26 490.09 618.1 495.86 617.48 500.55C616.87 505.22 611.69 509.89 610.47 511.32C609.26 512.77 603.47 516.75 601.02 520.35C598.58 523.95 596.46 527.19 597.06 528.99C597.4 530 598.3 533.23 598.99 536.27C596.34 539.52 593.64 542.72 590.88 545.87C590.1 546.13 589.44 546.39 588.98 546.66C588.19 547.13 588.03 547.93 588.19 548.9C577.1 561.28 565.15 572.96 552.42 583.78C549.87 584.88 547.59 586.36 546.77 587.33C545.24 589.13 543.12 588.77 540.07 586.97C537.02 585.16 536.71 582.65 536.41 578.68C536.11 574.72 535.19 572.2 535.19 572.2C535.19 572.2 534.28 566.09 531.52 563.21C528.79 560.32 527.87 557.08 526.35 554.91C524.83 552.76 529.17 546.61 528.87 542.65C528.56 538.69 523.3 534.04 521.78 531.51C520.26 528.99 517.2 522.15 515.98 519.62C514.77 517.1 513.24 512.07 513.55 504.87C513.86 497.66 516.95 493.45 519.39 491.28C521.84 489.13 520.87 486.5 518.73 482.19C516.6 477.86 519.05 470.65 517.2 468.14C515.38 465.61 512.55 451.55 509.19 449.39C505.84 447.23 502.28 447.25 504.1 442.21C505.94 437.16 504.1 432.13 507.16 428.88C510.2 425.65 508.67 423.49 505.33 421.32C501.97 419.16 503.19 418.08 500.45 420.6C497.7 423.12 494.04 424.56 491.92 422.04C489.78 419.52 490.39 415.56 486.42 412.68C482.46 409.8 476.12 410.79 474.58 411.5C473.07 412.23 469.97 418.44 465.69 419.16C461.44 419.88 458.38 418.8 454.12 418.8C449.85 418.8 446.19 419.16 445.58 421.69C444.98 424.2 444.06 425.65 441.32 423.12C438.57 420.6 433.09 414.84 433.09 414.84C433.09 414.84 428.02 404.91 426.5 400.57C424.98 396.26 419.68 396.11 413.89 392.87C408.1 389.63 411.45 386.03 410.84 382.43C410.23 378.83 407.19 377.38 408.7 377.02C410.23 376.66 409.92 374.15 413.27 369.1C416.63 364.07 414.5 358.66 413.89 355.78C413.27 352.9 410.23 348.58 413.27 343.9C416.33 339.21 418.23 328.05 420.67 325.16C423.11 322.28 430.35 319.41 433.7 317.61C437.05 315.8 434.92 311.13 436.74 305.73C438.57 300.33 441.32 297.8 442.24 297.8C443.15 297.8 446.53 294.06 450.15 291.69C452.9 289.88 459.3 292.04 460.52 291.33C461.74 290.61 466.61 288.8 469.36 287.36C472.1 285.92 480.94 282.32 482.15 282.32C483.38 282.32 498.61 282.68 500.75 281.6C502.88 280.52 511.14 278.99 513.56 286.91C516 294.83 510.81 291.69 508.38 293.12C505.94 294.56 509.29 297.8 510.5 297.8C511.72 297.8 515.98 302.49 518.12 302.49C520.26 302.49 525.44 305.01 525.44 305.01C525.44 305.01 530.61 309.69 533.36 309.69C536.11 309.69 540.75 315.28 543.8 311.68C546.84 308.08 548.29 300.68 551.35 301.4C554.39 302.13 557.75 305.01 561.7 305.01C565.66 305.01 572.98 304.29 574.21 306.09C575.43 307.89 565.97 314.01 566.58 315.45C567.2 316.88 568.42 316.53 571.47 312.21C574.51 307.89 579.08 307.89 582.74 306.81C584.57 306.27 585.94 307.71 586.93 309.56C587.97 308.98 589.25 308.97 590.66 308.97C593.72 308.97 592.49 307.17 595.54 303.56C598.58 299.96 599.51 292.77 599.8 288.09C600.11 283.4 597.66 285.56 595.24 286.28C592.8 287 589.14 288.09 587.92 287.72C586.7 287.36 581.83 285.56 580.91 286.64C579.99 287.72 574.81 287 573.6 285.21C572.38 283.4 566.28 281.24 565.66 279.8C565.06 278.36 565.66 269.72 564.44 267.55C563.23 265.4 560.49 267.92 558.96 269.36C557.44 270.8 553.18 271.88 554.39 272.96C555.61 274.04 559.58 276.2 559.27 279.07C558.96 281.96 556.22 282.68 554.7 284.12C553.18 285.56 547.63 291.26 546.72 289.46C545.8 287.66 545.24 276.2 544.33 274.75C543.42 273.33 540.67 269.72 539.76 266.47C538.85 263.24 535.5 262.15 533.36 259.63C531.23 257.12 525.13 253.15 522.7 250.27C520.26 247.39 515.98 245.23 515.68 248.83C515.38 252.43 519.96 253.15 521.78 256.75C523.61 260.36 527.57 262.52 529.7 263.59C531.84 264.67 537.63 269.36 537.63 269.36C537.63 269.36 535.19 270.44 533.06 270.08C530.92 269.72 534.26 277.84 533.97 280.35C533.66 282.88 530.01 279.44 529.4 276.56C528.79 273.67 526.96 270.44 525.74 269.36C524.53 268.28 516.6 265.4 515.38 264.67C514.16 263.95 508.98 259.99 508.38 256.75C507.76 253.51 503.19 253.15 501.97 253.88C500.75 254.59 496.18 258.55 494.04 258.55C491.92 258.55 488.56 256.75 486.11 256.39C483.68 256.04 483.38 261.07 482.46 263.95C481.55 266.84 477.59 264.67 475.46 267.2C473.32 269.72 469.66 272.24 470.57 274.4C471.5 276.56 473.02 276.56 470.28 278.36C467.52 280.16 466 283.76 463.26 284.12C460.52 284.48 456.87 285.92 455.34 284.84C453.81 283.76 452.6 288.44 451.68 289.53C450.77 290.61 449.23 286.28 447.72 284.48C446.19 282.68 442.24 284.12 441.02 283.76C439.79 283.4 438.57 280.16 437.05 278.72C435.52 277.28 435.83 274.04 437.05 272.96C438.26 271.88 439.48 270.08 438.57 266.84C437.66 263.59 437.05 256.39 440.1 254.96C443.15 253.51 450.46 254.96 454.12 254.96C457.78 254.96 464.04 256.45 465.09 254.23C466.61 250.99 467.22 247.39 466.92 244.15C466.61 240.91 460.52 238.02 456.56 237.31C452.6 236.59 453.2 234.43 457.47 234.07C461.74 233.71 461.44 231.91 465.09 231.19C468.75 230.47 472.41 229.39 475.15 229.03C477.89 228.66 477.89 225.78 477.89 223.63C477.89 221.47 485.51 220.74 485.51 220.74C485.51 220.74 489.78 216.07 492.21 213.9C494.66 211.74 498.92 212.1 502.28 213.18C505.63 214.26 501.97 210.66 500.75 208.86C499.53 207.06 500.45 203.09 501.36 200.94C502.28 198.77 507.76 197.69 509.29 198.42C510.81 199.13 509.29 202.37 509.59 205.26C509.9 208.14 512.33 209.94 512.33 209.94L514.77 209.58L518.73 209.58C522.7 209.58 522.9 209.67 525.95 208.58C529 207.51 531.23 208.86 532.46 208.14C533.66 207.42 537.02 207.42 541.59 209.22C546.16 211.02 543.72 205.98 544.64 203.09C545.55 200.21 547.38 195.18 550.43 195.53C553.48 195.9 555.92 198.05 558.35 196.26C560.79 194.45 553.78 191.94 553.78 190.85C553.78 189.77 559.58 189.77 564.75 189.41C569.94 189.05 572.98 189.41 575.43 188.7C577.86 187.97 573.6 182.93 572.67 182.93C571.78 182.93 565.66 183.65 562.61 183.29C559.58 182.93 556.22 185.45 553.48 186.17C550.74 186.89 550.12 181.85 548.6 179.69C547.07 177.53 546.46 173.57 550.43 171.41C554.39 169.25 561.41 164.56 562.61 162.4C563.84 160.24 557.75 160.61 551.96 160.96C546.16 161.32 552.87 163.13 547.38 169.61C541.9 176.09 539.16 171.77 534.88 176.09C530.61 180.4 533.66 180.77 537.63 182.21C541.59 183.65 538.24 187.97 537.33 189.05C536.41 190.13 531.84 194.1 532.46 196.97C533.06 199.85 529.4 201.66 529.4 201.66C529.4 201.66 518.12 204.54 515.98 204.9C513.86 205.26 513.24 203.09 513.86 200.94C514.46 198.77 511.41 193.74 511.12 190.5C510.81 187.25 506.24 191.94 505.94 194.1C505.63 196.26 499.84 196.61 496.49 195.18C493.13 193.74 491.3 188.33 491.92 187.25C492.52 186.17 490.09 180.77 490.09 179.33C490.09 177.89 497.21 167.4 503 165.96C508.8 164.52 515.68 160.96 519.65 157.37C523.61 153.76 525.44 149.44 526.66 148.36C527.87 147.28 548.93 135.35 556.55 133.9C564.17 132.47 580.91 141.16 583.65 141.88C586.39 142.59 587.92 143.67 594.63 146.56C601.33 149.44 607.67 146.3 611.93 147.02C616.2 147.74 618.4 152.32 621.15 153.76C623.89 155.21 621.15 156.29 614.43 158.8C607.73 161.32 603.16 160.61 599.51 159.16C595.84 157.72 593.72 157.72 596.46 159.88C599.2 162.04 598.29 163.13 598.58 166.36C598.89 169.61 603.16 166.73 604.07 166C604.98 165.28 604.98 163.85 608.35 166.36C611.69 168.89 612.91 167.44 614.43 167.08C615.96 166.73 614.74 162.77 615.65 161.32C616.57 159.88 620.23 159.88 621.15 159.16C622.06 158.45 624.19 157.37 626.01 157.01C627.84 156.64 627.54 160.24 629.38 161.32C630.47 161.97 630.58 160.15 630.35 158.28C644.36 180.4 655.65 204.22 663.65 229.17C674.27 262.26 678.81 295.91 678.04 329.1C676.97 327.56 676.04 326.2 675.39 325.89C673.87 325.17 669.3 329.85 667.47 329.14C665.65 328.42 661.98 324.81 658.01 322.65C654.06 320.49 652.84 315.45 651.31 312.21C649.79 308.97 644.61 314.01 645.21 317.61ZM500.75 272.96C498.92 271.17 500.32 265.76 503.19 265.76C504.71 265.76 507.46 269.36 505.94 271.88C504.41 274.4 502.58 274.75 500.75 272.96ZM194.75 354.34C193.23 352.9 187.74 350.02 186.52 348.22C185.3 346.42 178.9 347.14 175.25 347.14C171.59 347.14 168.54 348.22 168.84 344.62C168.84 344.62 176.16 342.1 177.99 342.1C179.81 342.1 184.38 342.1 186.83 344.62C189.26 347.14 193.83 350.02 195.96 349.66C198.1 349.3 201.76 353.26 201.46 354.69C201.15 356.14 196.27 355.78 194.75 354.34ZM140.5 131.68C138.67 131.91 134.8 132.39 132.17 132.88C129.53 133.35 127.93 132.1 127.7 131.44C127.08 129.75 133.39 126.64 135.22 125.92C137.05 125.2 138.67 127.36 140.7 127.6C142.73 127.83 142.33 131.44 140.5 131.68ZM191.09 334.53C193.83 334.17 195.67 337.41 192.31 338.13C188.96 338.85 188.31 334.9 191.09 334.53ZM193.83 370.21C190.48 371.38 189.82 364.96 192.62 364.36C195.36 363.77 197.19 369.04 193.83 370.21ZM519.65 281.6C518.12 280.88 515.18 278.42 516.29 277.64C517.82 276.56 521.78 277.64 522.7 277.64C523.61 277.64 526.35 277.64 527.57 281.24C528.79 284.84 524.83 285.21 523.61 284.84C522.39 284.48 521.18 282.32 519.65 281.6ZM145.38 236.23C145.38 238.17 148.42 238.39 150.25 237.31C152.08 236.23 154.82 235.51 156.04 235.15C157.26 234.79 156.65 236.95 159.39 236.95C162.14 236.95 165.49 238.02 166.41 237.67C167.32 237.31 170.06 232.99 167.93 232.62C165.79 232.27 162.45 229.75 160.62 227.59C158.79 225.43 154.52 230.47 150.56 232.27C146.59 234.07 145.38 233.35 145.38 236.23ZM165.79 240.55C163.36 240.91 159.7 241.99 158.48 244.87C157.26 247.75 158.48 253.15 158.17 255.31C157.88 257.47 157.26 263.59 160.01 263.95C163.05 264.35 163.05 259.28 162.75 257.83C162.45 256.39 162.45 250.27 163.67 249.19C164.88 248.11 166.41 244.87 169.76 244.51C173.11 244.15 175.25 247.03 174.94 250.27C174.63 253.51 175.54 256.75 176.77 256.75C177.99 256.75 181.64 254.23 180.42 252.07C179.2 249.91 181.34 242.7 181.34 245.23C181.34 247.75 183.78 249.55 185.3 249.19C186.83 248.83 183.78 242.35 181.64 241.99C179.51 241.63 175.25 241.63 174.33 241.99C173.42 242.35 168.23 240.18 165.79 240.55ZM183.47 258.2C183.47 258.2 177.99 260.71 177.68 261.79C177.38 262.87 176.16 261.79 177.07 263.95C177.77 265.6 181.03 264.32 182.87 262.15C184.69 259.99 188.66 259.28 189.88 257.47C191.09 255.67 192.01 256.04 195.05 254.59C198.1 253.15 200.54 252.8 199.32 250.99C198.1 249.19 191.7 250.99 190.79 250.27C189.88 249.55 183.47 258.2 183.47 258.2ZM184.6 179.93C182.56 180.89 179.53 178.14 182.76 177.05C185.61 176.09 186.62 178.97 184.6 179.93ZM131.36 115.84C130.71 115.54 130 115.19 129.26 114.8C130.61 113.34 131.94 111.88 133.31 110.44C134.12 110.67 134.63 110.79 135.83 111.03C138.27 111.52 142.33 115.35 144.15 116.55C145.99 117.76 147.82 119.91 150.25 119.68C152.69 119.43 156.55 119.43 159.6 119.68C162.64 119.91 173.01 119.91 174.84 119.68C176.67 119.43 184.19 121.35 183.78 122.32C183.37 123.28 182.76 124.72 178.9 124.96C175.04 125.2 168.14 124.47 163.46 123.99C158.79 123.51 154.32 124.72 154.32 124.72L147.82 123.99C147.82 123.99 142.33 122.07 140.7 119.68C139.07 117.27 134 117.03 131.36 115.84ZM646.74 281.96C648.88 282.68 655.28 285.21 657.41 285.56C659.55 285.92 666.56 284.84 666.25 282.68C665.94 280.52 664.72 271.88 662.29 269.72C659.84 267.55 665.65 265.4 664.11 263.59C662.59 261.79 660.46 262.52 659.24 260.36C658.01 258.2 657.41 256.04 655.58 254.59C653.75 253.15 652.24 256.04 652.54 252.07C652.84 248.11 657.1 245.59 658.93 247.75C660.76 249.91 666.25 248.83 667.47 247.75C668.69 246.67 665.03 243.43 664.11 241.26C663.2 239.1 657.1 237.31 656.19 238.02C655.28 238.75 652.84 240.91 650.4 242.7C647.96 244.51 643.09 241.26 641.26 242.7C637.56 245.62 636.38 249.55 637.9 252.07C639.43 254.59 643.69 262.52 645.83 263.24C647.96 263.95 655.58 265.4 652.54 268.64C649.49 271.88 648.88 272.96 646.13 272.59C643.38 272.24 644.61 281.24 646.74 281.96ZM617.79 257.12C613.83 254.59 610.47 250.63 606.82 249.19C603.16 247.75 601.94 246.31 604.07 245.59C606.21 244.87 608.95 241.99 605.9 241.99C602.85 241.99 600.11 243.07 599.8 244.87C599.51 246.67 597.66 248.83 596.46 249.55C595.24 250.27 592.19 253.15 591.27 250.99C590.36 248.83 587.01 242.35 585.48 241.99C583.96 241.63 581.52 241.99 579.69 245.59C577.86 249.19 575.73 252.8 573.9 254.23C572.07 255.67 569.64 259.99 571.47 260.71C573.29 261.44 571.47 267.92 571.47 267.92C572.07 269.36 575.12 265.76 577.55 265.76C579.99 265.76 585.48 266.84 587.01 264.32C588.53 261.79 593.41 261.44 597.37 262.15C601.33 262.87 604.69 266.12 607.43 266.47C610.17 266.84 617.48 266.12 619.93 265.4C622.36 264.67 621.75 259.63 617.79 257.12ZM590.36 184.37C591.89 181.85 583.34 175.73 581.83 180.77C580.79 184.16 588.84 186.89 590.36 184.37ZM586.7 440.05C585.79 441.85 584.87 450.12 587.62 450.85C590.36 451.57 595.24 442.21 593.72 439.33C592.89 437.77 587.62 438.24 586.7 440.05ZM480.03 271.52C482.15 267.55 483.68 270.44 483.07 271.88C482.46 273.33 479.29 272.88 480.03 271.52ZM446.5 200.58C445.28 198.77 444.34 195.07 446.81 194.1C448.63 193.37 450.46 195.9 451.98 193.74C453.51 191.58 455.65 189.41 458.08 191.21C460.52 193.02 466.98 191.49 469.12 194.01C471.25 196.52 462.66 201.29 464.48 202.74C466.31 204.18 469.36 210.66 472.1 212.1C474.85 213.55 477.89 217.5 478.2 220.02C478.5 222.54 474.54 226.51 472.1 226.51C469.66 226.51 464.78 224.7 462.35 224.7C459.92 224.7 458.99 227.94 457.47 227.22C455.94 226.51 457.78 223.98 457.78 223.98C457.78 223.98 449.2 224.95 449.81 222.79C450.42 220.63 457.47 213.55 459.92 212.1C462.35 210.66 455.94 209.22 452.9 207.78C449.85 206.34 447.72 202.37 446.5 200.58ZM376.06 138.64C376.79 139.6 377.36 143.2 373.64 144.17C369.93 145.12 368.63 142 368.81 139.6C368.99 137.19 362.21 134.36 361.47 134.36C360.73 134.36 361.19 141.76 363.98 141.76C366.76 141.76 368.63 145.12 369.93 146.56C371.22 148 367.14 148 365.47 147.76C363.8 147.53 358.59 151.12 353.76 152.08C348.94 153.04 343.56 151.87 341.52 152.12C339.47 152.35 336.3 159.53 335.56 160.72C334.81 161.93 328.13 160.72 325.71 160.72C323.29 160.72 321.25 163.85 317.35 164.56C313.45 165.28 315.49 168.17 315.68 170.57C315.86 172.96 314.56 174.16 312.14 173.45C309.73 172.73 309.92 174.41 309.73 176.57C309.55 178.73 310.1 181.61 307.87 183.77C305.64 185.93 304.71 186.65 302.12 186.42C299.51 186.17 299.7 180.9 298.78 181.13C297.84 181.37 293.38 184.73 292.64 182.81C291.89 180.89 286.13 176.57 284.09 175.6C282.05 174.64 280.57 170.57 279.63 168.89C278.71 167.2 282.42 166.97 281.31 166.73C280.19 166.49 276.29 165.28 275.55 164.09C274.81 162.88 272.4 157.13 272.21 155.44C272.02 153.76 275.18 150.89 275.18 149.92C275.18 148.97 272.21 148.97 270.91 148.97C269.6 148.97 268.12 145.36 269.98 141.76C271.83 138.16 274.62 139.12 274.62 139.12L277.41 139.12C278.89 139.12 278.53 143.2 277.78 145.12C277.04 147.04 278.9 146.8 280.01 147.76C281.12 148.72 281.67 146.08 281.87 144.4C282.05 142.72 279.08 138.64 277.78 136.96C276.48 135.28 272.58 134.56 271.83 135.77C271.09 136.96 267.93 142 267 140.8C266.08 139.6 265.89 128.79 264.22 125.67C262.54 122.56 256.6 121.6 254.19 120.15C251.77 118.71 243.04 117.27 241.56 117.03C240.07 116.8 234.49 118.48 232.27 117.51C230.03 116.55 230.03 111.75 230.03 111.75C230.03 111.75 228.73 116.8 227.81 118.23C226.88 119.68 224.84 120.4 223.35 119.68C221.86 118.96 219.63 113.67 216.85 112.95C214.06 112.24 212.76 113.43 210.52 111.51C207.18 108.63 216.29 108.87 216.85 108.87C217.4 108.87 224.47 107.19 224.65 104.78C224.84 102.39 227.06 99.98 230.22 100.7C233.38 101.43 234.68 98.06 234.31 95.18C233.94 92.3 239.88 89.19 241.19 90.63C242.48 92.06 247.5 90.38 245.83 87.5C244.15 84.62 252.33 81.75 259.76 81.26C267.19 80.79 269.05 81.75 270.91 82.94C272.76 84.14 279.08 84.62 281.31 81.26C283.54 77.9 281.12 73.1 283.73 71.18C286.32 69.26 286.7 74.06 288.74 75.98C290.79 77.9 292.83 70.69 295.05 67.82C295.46 67.3 300.46 66.99 304.36 64.16C308.79 60.94 315.53 61.33 321.18 61.16C325.6 61.03 328.46 59.44 332.88 59.71C338.51 60.05 345.64 62.33 350.35 62.94C351.64 63.11 354.58 64.82 350.92 65.53C347.27 66.25 339.84 68.04 335.42 68.82C329.67 69.83 322.25 68.63 323.3 68.82C324.64 69.04 331.96 72.26 341.06 69.9C342.11 69.63 345.85 67.06 350.01 68.18C352.13 68.75 354.54 66.11 358.25 65.17C361.08 64.46 365.65 65.42 365.65 65.42L369.56 64.7C373.45 63.97 371.21 73.35 374.89 78.1C377.42 81.38 378.1 87.74 382.56 88.94C387.02 90.14 389.24 86.55 393.15 82.7C397.04 78.86 402.99 81.02 405.96 82.22C408.94 83.42 405.96 88.94 401.69 90.38C397.41 91.82 389.61 101.19 388.13 102.62C386.65 104.07 384.23 106.71 385.53 110.31C386.83 113.91 388.5 112.24 389.8 112.95C391.1 113.67 388.69 115.11 387.57 117.27C386.46 119.43 386.27 123.51 386.46 127.36C386.65 131.19 379.31 125.68 375.4 126.16C371.5 126.64 373.27 131.91 374.01 133.6C374.76 135.27 375.31 137.68 376.06 138.64ZM413.12 167.93C413.12 167.93 407.62 168.17 406.81 169.61C406 171.05 403.16 171.77 399.7 172.96C396.25 174.18 394.62 172.49 394.02 170.57C393.4 168.64 388.52 168.89 387.1 169.13C385.68 169.36 384.46 167.44 382.83 164.09C381.21 160.72 382.83 160.65 383.65 159.04C384.25 157.85 390.97 158.8 392.59 160.72C394.22 162.64 396.86 160.72 400.92 160.72C404.98 160.72 406.81 158.8 408.64 159.04C410.48 159.28 414.33 160.49 415.95 162.17C417.59 163.85 413.12 167.93 413.12 167.93ZM435.22 212.1C434.61 209.58 436.74 208.86 438.57 208.86C440.4 208.86 440.68 205.44 443.45 204.9C445.28 204.54 447.41 204.9 448.63 206.34C449.85 207.78 450.46 210.66 450.46 213.9C450.46 217.15 447.41 219.31 445.28 220.39C443.15 221.47 440.4 223.63 437.96 223.26C435.52 222.9 433.4 218.58 435.22 217.5C437.05 216.42 435.83 214.63 435.22 212.1Z" />
		<path id="Path 8" class="shp6" d="M182.76 177.05C179.53 178.14 182.56 180.89 184.6 179.93C186.62 178.97 185.61 176.09 182.76 177.05ZM219.13 355.77C216.69 355.05 213.95 355.77 212.13 356.13C210.29 356.5 205.12 361.91 205.12 361.91C205.12 361.91 208.47 362.62 210.59 362.62C212.73 362.62 213.95 364.06 215.78 365.14C217.61 366.23 220.97 363.7 222.18 363.7C223.4 363.7 224.92 368.02 225.23 363.34C225.54 358.66 221.57 356.5 219.13 355.77ZM232.85 360.39C230.06 360.99 230.72 367.42 234.07 366.24C237.43 365.08 235.59 359.81 232.85 360.39ZM170.97 174.89C170.15 175.97 174.63 177.53 175.44 176.09C176.26 174.65 173.01 172.24 170.97 174.89ZM140.5 131.68C142.33 131.44 142.73 127.83 140.7 127.59C139.23 127.42 137.98 126.26 136.7 125.89C134.75 128.22 132.82 130.57 130.95 132.97C131.33 132.97 131.73 132.96 132.17 132.88C134.8 132.39 138.67 131.91 140.5 131.68ZM154.32 124.72C154.32 124.72 158.79 123.51 163.46 123.99C168.14 124.47 175.04 125.2 178.9 124.96C182.76 124.72 183.37 123.28 183.78 122.31C184.19 121.35 176.67 119.43 174.84 119.67C173.01 119.91 162.64 119.91 159.6 119.67C156.55 119.43 152.69 119.43 150.25 119.67C148.03 119.89 146.31 118.12 144.64 116.89C143.54 118.07 142.47 119.27 141.4 120.47C143.51 122.48 147.82 123.99 147.82 123.99L154.32 124.72ZM571.47 312.21C568.42 316.53 567.2 316.88 566.58 315.45C565.97 314.01 575.43 307.89 574.21 306.09C572.98 304.29 565.66 305.01 561.7 305.01C557.75 305.01 554.39 302.13 551.35 301.4C548.29 300.68 546.84 308.08 543.8 311.68C540.75 315.28 536.11 309.69 533.36 309.69C530.61 309.69 525.44 305.01 525.44 305.01C525.44 305.01 520.26 302.48 518.12 302.48C515.98 302.48 511.72 297.8 510.5 297.8C509.29 297.8 505.94 294.56 508.38 293.12C510.81 291.69 516 294.83 513.56 286.91C511.14 278.99 502.88 280.52 500.75 281.59C498.61 282.68 483.38 282.32 482.15 282.32C480.94 282.32 472.11 285.92 469.36 287.36C466.61 288.8 461.74 290.61 460.52 291.32C459.3 292.04 452.9 289.88 450.15 291.69C446.53 294.06 443.15 297.8 442.24 297.8C441.32 297.8 438.57 300.33 436.74 305.73C434.92 311.13 437.05 315.8 433.7 317.61C430.35 319.41 423.11 322.28 420.67 325.16C418.23 328.04 416.33 339.21 413.27 343.89C410.23 348.58 413.27 352.9 413.89 355.78C414.5 358.66 416.63 364.07 413.27 369.1C409.92 374.15 410.23 376.66 408.7 377.02C407.19 377.38 410.23 378.83 410.84 382.43C411.45 386.03 408.1 389.63 413.89 392.87C419.68 396.11 424.98 396.26 426.5 400.57C428.02 404.9 433.09 414.84 433.09 414.84C433.09 414.84 438.57 420.6 441.32 423.12C444.06 425.65 444.98 424.2 445.58 421.69C446.19 419.16 449.85 418.8 454.12 418.8C458.38 418.8 461.44 419.88 465.69 419.16C469.97 418.44 473.07 412.23 474.58 411.5C476.12 410.79 482.46 409.8 486.42 412.68C490.39 415.56 489.78 419.52 491.92 422.04C494.04 424.56 497.7 423.12 500.45 420.6C503.19 418.08 501.97 419.16 505.33 421.32C508.67 423.49 510.2 425.65 507.16 428.88C504.1 432.13 505.94 437.16 504.1 442.21C502.68 446.15 504.55 447 507.04 448.22C522.71 434.2 536.25 417.93 546.81 399.59C562.81 371.79 574.14 340.15 579.76 307.52C576.82 308.18 573.72 309.01 571.47 312.21ZM374.01 133.6C373.27 131.91 371.5 126.64 375.41 126.16C379.31 125.68 386.65 131.19 386.46 127.36C386.27 123.51 386.46 119.43 387.57 117.27C388.69 115.11 391.1 113.67 389.8 112.95C388.5 112.24 386.83 113.91 385.53 110.31C384.23 106.71 386.65 104.07 388.13 102.62C389.61 101.19 397.41 91.82 401.69 90.38C405.96 88.94 408.94 83.42 405.96 82.22C402.99 81.02 397.04 78.86 393.15 82.7C389.24 86.55 387.02 90.14 382.56 88.94C378.1 87.74 377.42 81.38 374.89 78.1C371.21 73.35 373.45 63.97 369.56 64.7L365.65 65.42C365.65 65.42 361.08 64.46 358.25 65.17C354.54 66.11 352.13 68.74 350.01 68.18C345.85 67.06 342.11 69.63 341.06 69.9C331.96 72.26 324.64 69.04 323.3 68.81C322.25 68.63 329.67 69.83 335.42 68.81C339.84 68.04 347.27 66.25 350.92 65.53C354.58 64.82 351.64 63.11 350.35 62.94C345.64 62.33 338.51 60.04 332.88 59.71C328.46 59.44 325.6 61.03 321.18 61.16C315.53 61.33 308.79 60.94 304.36 64.16C300.46 66.99 295.46 67.3 295.05 67.82C292.83 70.69 290.79 77.9 288.74 75.98C286.7 74.06 286.32 69.26 283.73 71.18C281.13 73.1 283.54 77.9 281.31 81.26C279.08 84.62 272.76 84.14 270.91 82.94C269.05 81.75 267.19 80.79 259.76 81.26C252.33 81.75 244.15 84.62 245.83 87.5C247.5 90.38 242.48 92.06 241.19 90.63C239.88 89.19 233.94 92.3 234.31 95.18C234.68 98.06 233.38 101.43 230.22 100.7C227.06 99.98 224.84 102.39 224.65 104.78C224.47 107.19 217.4 108.87 216.85 108.87C216.29 108.87 207.18 108.63 210.52 111.51C212.76 113.43 214.06 112.24 216.85 112.95C219.63 113.67 221.86 118.95 223.35 119.68C224.84 120.39 226.88 119.68 227.81 118.23C228.73 116.8 230.03 111.75 230.03 111.75C230.03 111.75 230.03 116.55 232.27 117.51C234.49 118.48 240.07 116.8 241.56 117.03C243.04 117.27 251.77 118.71 254.19 120.15C256.6 121.6 262.54 122.56 264.22 125.67C265.89 128.79 266.08 139.6 267 140.8C267.93 142 271.09 136.96 271.84 135.77C272.58 134.56 276.48 135.28 277.78 136.96C279.08 138.64 282.05 142.72 281.87 144.4C281.67 146.08 281.13 148.72 280.01 147.76C278.9 146.8 277.04 147.04 277.78 145.12C278.53 143.2 278.89 139.12 277.41 139.12L274.62 139.12C274.62 139.12 271.84 138.16 269.98 141.76C268.12 145.36 269.6 148.96 270.91 148.96C272.21 148.96 275.18 148.96 275.18 149.92C275.18 150.88 272.02 153.76 272.21 155.44C272.4 157.13 274.81 162.88 275.55 164.09C276.29 165.28 280.2 166.49 281.31 166.73C282.42 166.97 278.71 167.2 279.63 168.89C280.57 170.57 282.05 174.64 284.09 175.6C286.13 176.57 291.89 180.89 292.64 182.81C293.38 184.73 297.84 181.37 298.78 181.13C299.7 180.9 299.51 186.17 302.12 186.41C304.71 186.65 305.64 185.93 307.88 183.77C310.1 181.61 309.55 178.73 309.73 176.57C309.92 174.41 309.73 172.73 312.14 173.44C314.56 174.16 315.86 172.96 315.68 170.57C315.49 168.17 313.45 165.28 317.35 164.56C321.25 163.85 323.29 160.72 325.71 160.72C328.13 160.72 334.81 161.93 335.56 160.72C336.3 159.53 339.47 152.35 341.52 152.12C343.56 151.87 348.94 153.04 353.76 152.08C358.59 151.12 363.8 147.52 365.47 147.76C367.14 147.99 371.22 147.99 369.93 146.56C368.63 145.12 366.76 141.76 363.98 141.76C361.19 141.76 360.73 134.36 361.47 134.36C362.21 134.36 368.99 137.19 368.81 139.6C368.63 142 369.93 145.12 373.64 144.17C377.36 143.2 376.79 139.6 376.06 138.64C375.31 137.68 374.76 135.27 374.01 133.6Z" />
		<path id="Path 9" fill-rule="evenodd" class="shp6" d="M347.14 469.93C347.44 473.53 343.79 481.1 343.48 482.9C343.19 484.69 338.31 491.18 333.73 495.5C329.16 499.82 331.9 504.87 332.21 507.03C332.23 507.2 332.22 507.42 332.21 507.65C300 506.28 268 499.54 237.37 488.67C217.12 481.48 197.26 473.35 178.96 463.27C178.94 463.21 178.92 463.15 178.9 463.09C177.99 459.13 180.26 456.56 180.86 454.04C181.48 451.51 180.42 445.81 180.12 444.01C179.81 442.21 182.86 436.26 184.69 435.18C186.52 434.1 189.88 430.33 191.09 430.33C192.31 430.33 192.01 426.36 193.23 422.4C194.45 418.44 192.62 413.04 191.7 412.31C190.79 411.6 189.88 406.92 188.35 405.48C186.83 404.04 183.78 404.75 183.78 404.75C183.78 404.75 184.38 407.99 181.64 409.8C178.9 411.6 178.29 409.44 177.38 408.36C176.46 407.28 173.11 406.92 171.59 405.12C170.06 403.31 167.62 400.8 165.79 399.72C163.96 398.63 159.52 397.7 159.83 393.38C160.13 389.06 157.57 386.39 156.35 385.67C155.13 384.95 152.69 383.15 151.17 384.23C149.64 385.31 146.9 382.07 144.76 382.43C142.63 382.79 138.37 378.11 136.84 376.3C135.32 374.5 134.1 371.98 131.36 371.98C128.61 371.98 128.31 373.06 126.48 375.58C124.65 378.11 121.9 373.78 120.99 372.71C120.08 371.63 115.64 373.43 112.28 373.43C108.93 373.43 107.4 366.55 107.28 365.15C106.82 359.77 97.53 359.74 95.39 358.3C93.26 356.86 91.12 351.45 92.04 350.02C92.95 348.58 90.51 343.89 90.51 343.89C90.51 343.89 89.41 342.41 88.13 340.95C80.92 309.82 78.45 276.01 82.72 246.58C87.76 211.93 99.67 180.65 116.71 153.37C117.34 153.29 117.87 153.19 118.25 153.04C119.98 152.36 120.37 150.39 119.66 148.76C120.69 147.19 121.73 145.63 122.79 144.1C124.49 143.85 125.66 143.33 125.26 144.04C124.65 145.12 125.57 147.64 125.57 150.52C125.57 153.4 126.48 155.21 128.61 154.48C130.74 153.76 130.37 151.38 132.5 151.03C134.63 150.67 134.1 146.56 132.87 143.32C131.67 140.08 130.74 138.27 131.05 136.48C131.36 134.68 134.71 134.32 136.53 136.11C138.37 137.92 140.8 141.51 140.8 141.51C140.8 141.51 144.46 144.04 145.68 146.92C146.9 149.8 147.2 149.08 149.64 147.28C152.08 145.48 152.69 145.84 154.82 147.64C156.96 149.44 155.43 153.04 155.43 154.12C155.43 155.21 158.48 154.12 159.09 151.96C159.7 149.8 162.14 149.8 163.67 149.08C165.19 148.36 165.19 144.04 165.19 144.04C165.19 144.04 161.22 142.96 157.26 143.32C153.3 143.67 152.08 142.96 149.04 140.43C145.99 137.92 147.82 136.11 146.29 133.6C144.76 131.08 151.17 129.63 155.13 127.47C159.09 125.31 163.05 126.75 162.14 132.15C161.22 137.56 160.62 136.84 165.19 135.76C169.76 134.68 164.88 130 167.01 129.63C169.15 129.28 174.63 128.19 176.46 128.55C178.29 128.91 188.35 127.47 190.79 127.47C193.23 127.47 197.19 130 199.93 131.8C202.68 133.6 209.99 136.11 211.82 137.19C213.65 138.27 226.45 140.43 227.67 140.8C228.88 141.16 228.88 145.48 230.1 149.08C231.33 152.68 234.68 150.16 235.89 150.16C237.11 150.16 241.38 152.68 242.6 154.48C243.82 156.29 252.97 157.72 252.97 157.72C252.97 157.72 250.83 160.96 249.92 162.04C249 163.12 246.87 163.85 245.04 165.28C243.21 166.73 241.08 164.92 238.64 163.12C236.2 161.32 231.93 160.24 231.02 160.96C230.1 161.68 230.72 163.12 231.33 164.2C231.93 165.28 235.89 166.73 238.34 168.89C240.77 171.05 240.17 173.21 240.46 176.09C240.77 178.97 238.03 175 234.98 174.29C231.93 173.57 231.63 177.16 231.63 177.16C231.63 177.16 227.67 176.81 225.84 176.81C224.01 176.81 225.84 176.81 222.49 173.92C219.13 171.05 219.75 175.73 217.92 174.29C216.09 172.85 214.26 170.69 213.34 171.41C212.42 172.13 209.38 168.17 207.55 168.53C205.72 168.89 198.41 167.44 196.58 168.17C194.75 168.89 193.23 168.89 191.7 169.61C190.17 170.33 189.57 164.56 190.48 162.76C191.4 160.96 193.53 160.61 197.5 161.68C201.46 162.76 201.76 161.68 202.68 159.88C203.59 158.08 204.5 156.29 208.77 154.85C213.04 153.4 208.47 152.32 207.25 151.6C206.03 150.88 204.5 149.44 203.59 151.6C202.68 153.76 200.54 156.29 200.54 156.29C200.54 156.29 198.1 156.29 194.75 155.93C191.4 155.56 193.84 154.12 195.36 153.4C196.88 152.68 198.71 148.36 197.19 147.28C195.67 146.2 195.05 145.48 192.31 146.2C189.57 146.92 191.4 143.67 189.57 142.59C187.74 141.51 188.35 143.32 188.35 144.76C188.35 146.2 185.61 145.84 185.61 145.84C185.61 145.84 181.34 145.12 179.81 145.84C178.29 146.56 175.54 147.99 176.46 149.08C177.38 150.16 180.42 150.16 181.34 153.4C182.25 156.64 177.38 157.37 176.46 157.72C175.54 158.08 171.89 159.53 171.89 159.53C171.89 159.53 168.24 158.45 165.19 158.45C162.14 158.45 161.22 158.8 161.83 160.24C162.45 161.68 163.96 160.96 164.88 160.96C165.79 160.96 165.79 162.76 168.54 162.04C171.28 161.32 170.67 160.24 173.11 163.12C175.54 166 177.99 165.64 181.95 168.17C185.91 170.69 181.34 173.57 179.21 173.57C177.07 173.57 177.07 171.41 175.85 169.25C174.63 167.08 169.76 169.61 169.76 169.61C169.76 169.61 165.79 172.13 163.67 172.13C161.53 172.13 160.01 171.77 162.75 169.25C165.49 166.73 159.39 166.36 159.39 162.76C159.39 159.16 157.64 168.89 157.64 170.69C157.64 172.5 155.74 168.53 150.56 169.25C145.38 169.96 146.29 172.13 139.58 177.16C132.87 182.21 134.63 181.04 135.23 185.72C135.85 190.4 134.1 191.21 136.84 191.93C139.58 192.66 138.67 198.05 140.8 197.69C142.94 197.34 144.46 195.53 148.73 198.05C152.99 200.58 155.13 201.29 160.31 202.37C165.49 203.45 168.01 202.84 170.75 202.12C173.5 201.39 176.16 204.9 176.16 207.42C176.16 209.94 177.99 210.3 177.68 213.54C177.38 216.78 181.03 210.66 181.03 210.66C181.03 210.66 182.56 216.07 181.34 216.78C180.12 217.5 181.64 220.74 183.16 220.38C184.69 220.02 186.83 221.47 188.66 219.66C190.48 217.86 187.74 212.47 187.74 210.3C187.74 208.14 185.91 207.06 185 204.9C184.08 202.74 187.44 202.37 188.66 204.54C189.88 206.7 192.01 204.9 194.14 203.09C196.27 201.29 196.27 198.05 196.27 198.05C196.27 198.05 192.62 192.29 189.88 190.85C187.13 189.41 188.35 189.05 191.09 188.33C193.84 187.61 191.09 186.53 191.7 182.57C192.31 178.61 192.31 176.09 193.84 176.09C195.36 176.09 200.84 175 205.42 175.37C209.99 175.73 212.13 179.69 215.18 180.05C218.22 180.4 223.09 181.13 224.01 182.93C224.92 184.73 218.62 185.85 220.76 188.73C222.89 191.61 225.23 190.5 227.36 191.58C229.5 192.66 231.93 191.93 234.68 187.61C237.43 183.29 238.64 182.93 239.55 183.65C240.46 184.37 246.26 192.29 247.78 194.1C249.31 195.89 250.78 201.13 251.08 202.94C251.39 204.73 257.23 203.45 258.45 203.45C259.66 203.45 264.24 207.42 264.85 209.58C265.46 211.74 266.68 212.47 270.64 213.54C274.61 214.63 270.64 218.58 269.73 220.74C268.81 222.9 268.2 223.63 266.98 226.14C265.77 228.66 266.98 226.14 268.51 227.22C270.03 228.3 270.64 229.75 273.08 229.03C275.52 228.3 276.74 229.03 277.65 231.19C278.56 233.35 279.78 235.15 280.7 236.95C281.61 238.75 280.7 241.63 279.47 239.83C278.27 238.02 274.3 239.1 274.3 239.1C274.3 239.1 272.47 241.26 271.86 240.18C271.25 239.1 270.03 237.67 267.9 238.39C265.77 239.1 263.63 238.39 261.19 238.75C258.75 239.1 257.84 237.31 259.36 235.86C260.89 234.43 261.19 229.03 264.24 226.86C267.29 224.7 266.38 221.47 264.24 221.47C262.1 221.47 261.19 224.7 259.98 225.43C258.75 226.14 254.59 224.09 252.45 225.89C250.32 227.69 246.87 229.03 249 229.75C251.13 230.47 245.96 233.35 244.13 233.35C242.3 233.35 242.91 228.66 242.91 226.86C242.91 225.06 240.46 227.94 240.46 227.94C240.46 227.94 235.59 224.7 233.76 226.86C231.93 229.03 225.35 228.1 223.21 230.26C221.08 232.43 220.05 238.02 220.05 238.02C220.05 238.02 221.88 236.95 225.54 235.86C229.19 234.78 228.88 235.15 231.93 233.35C234.98 231.54 238.03 230.83 240.17 234.07C242.3 237.31 239.25 239.1 239.25 239.1C239.25 239.1 240.46 241.63 241.68 242.35C242.91 243.07 243.21 241.63 245.34 240.18C247.48 238.75 246.56 243.07 247.18 244.51C247.78 245.95 249.92 245.95 251.13 244.15C252.35 242.35 253.26 240.91 254.18 241.99C255.09 243.07 256.01 245.59 256.92 248.11C257.84 250.63 250.52 251.36 249.31 251.71C248.09 252.07 242.3 253.51 241.38 253.88C240.46 254.23 237.43 257.47 234.98 257.47C232.54 257.47 232.85 253.15 232.54 250.63C232.24 248.11 229.19 250.99 228.88 252.07C228.58 253.15 225.84 252.8 223.71 253.15C221.57 253.51 217.92 256.04 217.92 258.91C217.92 261.79 222.21 264.89 221.3 266.33C220.39 267.77 213.34 267.2 211.21 266.47C209.08 265.75 206.03 267.55 206.94 269C207.85 270.44 207.25 272.59 205.12 272.24C202.98 271.88 202.68 274.4 203.59 276.2C204.5 277.99 200.84 281.59 199.93 280.16C199.01 278.72 197.19 277.99 197.19 280.16C197.19 282.32 198.97 285.3 200.81 288.18C202.64 291.07 195.67 291.69 193.53 293.85C191.4 296.01 186.64 303.41 183.6 304.85C180.55 306.29 177.99 310.77 179.51 312.56C181.03 314.37 182.87 321.93 183.78 324.45C184.69 326.97 183.47 334.17 180.73 333.82C177.99 333.46 179.51 329.14 176.77 328.06C174.02 326.97 172.5 320.49 171.89 316.16C171.28 311.85 170.67 314.37 168.84 315.8C167.01 317.25 165.19 312.93 164.27 311.85C163.36 310.77 158.84 313.95 155.18 313.59C151.52 313.23 149.64 314.01 149.64 315.09C149.64 316.16 149.04 319.41 145.68 317.25C142.33 315.09 141.71 315.09 138.37 315.09C135.01 315.09 131.96 314.72 131.36 316.16C130.74 317.61 127.4 320.85 125.26 321.57C123.12 322.3 119.17 325.89 120.99 326.61C122.82 327.33 122.82 332.37 121.6 335.25C120.38 338.13 120.69 343.17 121.3 348.21C121.9 353.26 125.57 356.5 128.92 359.74C132.27 362.99 133.5 364.07 136.84 361.18C140.2 358.3 141.41 360.1 142.33 360.46C143.24 360.82 145.68 358.66 144.76 355.42C143.85 352.18 145.99 349.29 148.73 349.66C151.47 350.02 155.43 348.58 157.57 348.94C159.7 349.29 160.92 356.13 157.57 359.01C154.21 361.91 156.04 366.23 155.43 369.47C154.82 372.71 152.08 373.42 155.43 373.42C158.79 373.42 157.88 374.15 160.01 374.5C162.14 374.87 164.27 372.34 166.41 371.98C168.54 371.63 174.02 377.38 173.11 380.27C172.2 383.15 171.28 388.18 171.59 392.87C171.89 397.55 173.11 397.91 173.72 399.35C174.33 400.8 176.77 404.04 179.51 402.59C182.25 401.15 185 400.08 185.91 398.63C186.83 397.19 192.62 401.15 192.01 402.24C191.4 403.31 194.14 404.4 195.96 403.31C197.79 402.24 198.71 400.43 200.54 397.55C202.37 394.67 205.42 392.15 206.94 391.79C208.47 391.44 212.13 387.11 214.56 387.84C217 388.55 213.65 392.15 213.34 394.31C213.04 396.47 213.34 402.59 214.56 402.95C215.78 403.31 215.18 398.63 216.69 395.39C218.22 392.15 221.26 390.34 222.79 390.34C224.31 390.34 225.54 397.91 227.67 395.75C229.8 393.59 234.07 393.95 234.98 396.11C235.89 398.27 236.81 399.35 236.81 399.35C236.81 399.35 238.34 397.91 238.34 396.11C238.34 394.31 243.21 392.5 246.26 394.67C249.31 396.82 248.09 397.55 249.61 397.91C251.13 398.27 252.66 393.23 253.57 392.87C254.49 392.5 253.57 398.63 251.44 401.87C249.31 405.12 253.26 404.04 253.26 404.04L254.18 405.12C255.09 406.2 258.14 404.04 259.36 406.2C260.58 408.36 262.72 409.07 264.55 413.04C266.38 417 268.47 413.49 272.12 412.78C275.78 412.05 281.01 417.36 284.66 422.04C288.32 426.72 287.71 430.33 290.14 430.33C292.59 430.33 293.19 434.28 293.19 435.72C293.19 437.16 287.71 440.41 284.66 441.13C281.61 441.85 281.61 445.45 286.49 444.37C291.37 443.29 289.23 441.13 292.28 440.05C295.33 438.96 298.38 441.49 295.64 445.81C292.89 450.12 287.4 450.49 292.28 451.2C297.16 451.93 294.42 450.49 297.16 446.17C299.9 441.85 299.59 443.29 301.43 443.29C303.26 443.29 307.21 444.37 308.74 445.81C310.27 447.25 314.22 449.41 316.66 451.2C319.1 453.01 322.15 452.28 323.98 451.57C325.8 450.85 330.98 453.73 332.81 456.61C334.64 459.5 339.22 459.85 341.35 460.93C343.48 462.01 346.84 466.33 347.14 469.93ZM165.79 240.54C163.36 240.91 159.7 241.99 158.48 244.87C157.26 247.75 158.48 253.15 158.17 255.31C157.88 257.47 157.26 263.59 160.01 263.95C163.05 264.35 163.05 259.28 162.75 257.83C162.45 256.39 162.45 250.27 163.67 249.19C164.88 248.11 166.41 244.87 169.76 244.51C173.11 244.15 175.25 247.03 174.94 250.27C174.63 253.51 175.54 256.75 176.77 256.75C177.99 256.75 181.64 254.23 180.42 252.07C179.21 249.91 181.34 242.7 181.34 245.23C181.34 247.75 183.78 249.55 185.3 249.19C186.83 248.83 183.78 242.35 181.64 241.99C179.51 241.63 175.25 241.63 174.33 241.99C173.42 242.35 168.24 240.18 165.79 240.54ZM183.47 258.19C183.47 258.19 177.99 260.71 177.68 261.79C177.38 262.87 176.16 261.79 177.07 263.95C177.77 265.6 181.03 264.31 182.87 262.15C184.69 259.99 188.66 259.28 189.88 257.47C191.09 255.67 192.01 256.04 195.05 254.59C198.1 253.15 200.54 252.8 199.32 250.99C198.1 249.19 191.7 250.99 190.79 250.27C189.88 249.55 183.47 258.19 183.47 258.19ZM145.38 236.23C145.38 238.17 148.42 238.39 150.25 237.31C152.08 236.23 154.82 235.51 156.04 235.15C157.26 234.78 156.65 236.95 159.39 236.95C162.14 236.95 165.49 238.02 166.41 237.67C167.32 237.31 170.06 232.99 167.93 232.62C165.79 232.27 162.45 229.75 160.62 227.59C158.79 225.43 154.52 230.47 150.56 232.27C146.59 234.07 145.38 233.35 145.38 236.23ZM519.65 281.59C518.12 280.88 515.18 278.42 516.29 277.64C517.82 276.56 521.78 277.64 522.7 277.64C523.61 277.64 526.35 277.64 527.57 281.24C528.79 284.84 524.83 285.2 523.61 284.84C522.39 284.48 521.18 282.32 519.65 281.59ZM480.03 271.52C482.15 267.55 483.68 270.44 483.07 271.88C482.46 273.33 479.29 272.88 480.03 271.52ZM500.75 272.96C498.92 271.16 500.31 265.76 503.19 265.76C504.71 265.76 507.46 269.36 505.94 271.88C504.41 274.4 502.58 274.75 500.75 272.96ZM435.22 212.1C434.61 209.58 436.74 208.86 438.57 208.86C440.4 208.86 440.69 205.44 443.45 204.9C445.28 204.54 447.42 204.9 448.63 206.34C449.85 207.78 450.46 210.66 450.46 213.9C450.46 217.15 447.42 219.31 445.28 220.39C443.15 221.47 440.4 223.63 437.96 223.26C435.52 222.9 433.4 218.58 435.22 217.5C437.05 216.42 435.83 214.63 435.22 212.1ZM446.5 200.58C445.28 198.77 444.34 195.07 446.8 194.1C448.63 193.37 450.46 195.89 451.98 193.73C453.51 191.58 455.64 189.41 458.08 191.21C460.52 193.02 466.98 191.49 469.12 194.01C471.25 196.52 462.66 201.29 464.48 202.74C466.31 204.17 469.36 210.66 472.1 212.1C474.85 213.54 477.89 217.5 478.2 220.02C478.5 222.54 474.54 226.51 472.1 226.51C469.66 226.51 464.78 224.7 462.35 224.7C459.92 224.7 458.99 227.94 457.47 227.22C455.94 226.51 457.78 223.98 457.78 223.98C457.78 223.98 449.2 224.95 449.81 222.79C450.42 220.63 457.47 213.54 459.92 212.1C462.35 210.66 455.94 209.22 452.9 207.78C449.85 206.34 447.72 202.37 446.5 200.58ZM550.43 171.41C554.12 169.4 560.46 165.19 562.29 162.88C565.47 169.45 568.31 176.19 570.76 183.07C568.47 183.25 564.77 183.54 562.61 183.29C559.58 182.93 556.22 185.45 553.48 186.17C550.74 186.89 550.12 181.84 548.6 179.69C547.07 177.53 546.46 173.57 550.43 171.41ZM413.12 167.93C413.12 167.93 407.62 168.17 406.81 169.61C406 171.05 403.16 171.77 399.7 172.96C396.25 174.17 394.62 172.49 394.02 170.57C393.4 168.64 388.53 168.89 387.1 169.13C385.68 169.36 384.46 167.44 382.83 164.09C381.21 160.72 382.83 160.65 383.65 159.04C384.25 157.84 390.97 158.8 392.59 160.72C394.22 162.64 396.86 160.72 400.92 160.72C404.98 160.72 406.81 158.8 408.64 159.04C410.48 159.28 414.33 160.48 415.95 162.17C417.59 163.85 413.12 167.93 413.12 167.93ZM193.83 370.21C190.48 371.38 189.82 364.95 192.62 364.36C195.36 363.77 197.19 369.04 193.83 370.21ZM583.71 265.9C583.59 272.71 583.21 279.54 582.57 286.34C581.81 286.27 581.18 286.32 580.91 286.64C579.99 287.72 574.81 287 573.6 285.2C572.38 283.39 566.28 281.24 565.66 279.8C565.06 278.36 565.66 269.72 564.44 267.55C563.23 265.39 560.49 267.92 558.96 269.36C557.44 270.8 553.18 271.88 554.39 272.96C555.61 274.04 559.58 276.2 559.27 279.07C558.96 281.96 556.22 282.68 554.7 284.11C553.18 285.56 547.63 291.26 546.72 289.46C545.8 287.66 545.24 276.2 544.33 274.75C543.42 273.32 540.67 269.72 539.76 266.47C538.85 263.24 535.5 262.15 533.36 259.63C531.23 257.11 525.13 253.15 522.7 250.27C520.26 247.39 515.98 245.23 515.68 248.83C515.38 252.43 519.96 253.15 521.78 256.75C523.61 260.35 527.57 262.51 529.7 263.59C531.84 264.67 537.63 269.36 537.63 269.36C537.63 269.36 535.19 270.44 533.06 270.08C530.92 269.72 534.26 277.84 533.97 280.35C533.66 282.88 530.01 279.43 529.4 276.56C528.79 273.67 526.96 270.44 525.74 269.36C524.53 268.28 516.6 265.39 515.38 264.67C514.16 263.95 508.98 259.99 508.38 256.75C507.76 253.51 503.19 253.15 501.97 253.88C500.75 254.59 496.18 258.54 494.04 258.54C491.92 258.54 488.56 256.75 486.11 256.39C483.68 256.04 483.38 261.07 482.46 263.95C481.55 266.84 477.59 264.67 475.46 267.2C473.32 269.72 469.66 272.24 470.57 274.4C471.5 276.56 473.01 276.56 470.28 278.36C467.52 280.16 466 283.76 463.26 284.11C460.52 284.48 456.87 285.92 455.34 284.84C453.81 283.76 452.6 288.44 451.68 289.52C450.76 290.61 449.23 286.28 447.72 284.48C446.19 282.68 442.24 284.11 441.02 283.76C439.79 283.39 438.57 280.16 437.05 278.72C435.52 277.28 435.83 274.04 437.05 272.96C438.26 271.88 439.48 270.08 438.57 266.84C437.66 263.59 437.05 256.39 440.1 254.95C443.15 253.51 450.46 254.95 454.12 254.95C457.78 254.95 464.04 256.45 465.09 254.23C466.61 250.99 467.22 247.39 466.92 244.15C466.61 240.91 460.52 238.02 456.56 237.31C452.6 236.59 453.2 234.43 457.47 234.07C461.74 233.7 461.44 231.91 465.09 231.18C468.75 230.46 472.41 229.39 475.15 229.03C477.89 228.66 477.89 225.78 477.89 223.62C477.89 221.47 485.51 220.74 485.51 220.74C485.51 220.74 489.78 216.07 492.21 213.9C494.66 211.74 498.92 212.1 502.28 213.18C505.63 214.26 501.97 210.66 500.75 208.86C499.53 207.06 500.45 203.09 501.36 200.94C502.28 198.77 507.76 197.69 509.29 198.42C510.81 199.13 509.29 202.37 509.59 205.26C509.9 208.14 512.33 209.94 512.33 209.94L514.77 209.58L518.73 209.58C522.7 209.58 522.9 209.67 525.95 208.58C529 207.51 531.23 208.86 532.46 208.14C533.66 207.42 537.02 207.42 541.59 209.22C546.16 211.02 543.72 205.98 544.64 203.09C545.55 200.21 547.38 195.18 550.43 195.53C553.48 195.89 555.92 198.05 558.35 196.26C560.79 194.45 553.78 191.93 553.78 190.85C553.78 189.77 559.58 189.77 564.75 189.41C568.27 189.17 570.79 189.25 572.82 189.1C578.34 206.21 581.66 224.06 583.03 242.18C581.9 242.61 580.7 243.59 579.69 245.59C577.86 249.19 575.73 252.8 573.9 254.23C572.07 255.67 569.64 259.99 571.47 260.71C573.29 261.43 571.47 267.92 571.47 267.92C572.07 269.36 575.12 265.75 577.55 265.75C579.01 265.75 581.57 266.13 583.71 265.9ZM191.09 334.53C193.83 334.17 195.67 337.41 192.31 338.13C188.96 338.85 188.31 334.89 191.09 334.53ZM490.09 179.33C490.09 177.89 497.21 167.4 503 165.96C508.8 164.52 515.69 160.96 519.65 157.37C523.62 153.76 525.44 149.44 526.66 148.36C527.52 147.59 538.43 141.33 547.39 137.26C549.09 139.74 550.76 142.25 552.36 144.81C555.63 150.04 558.6 155.42 561.34 160.91C559.35 160.51 555.6 160.74 551.96 160.96C546.16 161.32 552.87 163.12 547.38 169.61C541.9 176.09 539.16 171.77 534.88 176.09C530.61 180.4 533.67 180.77 537.64 182.21C541.59 183.65 538.25 187.97 537.33 189.05C536.41 190.13 531.84 194.1 532.46 196.97C533.06 199.85 529.4 201.66 529.4 201.66C529.4 201.66 518.12 204.54 515.98 204.9C513.86 205.26 513.24 203.09 513.86 200.94C514.46 198.77 511.41 193.74 511.12 190.5C510.81 187.25 506.24 191.93 505.94 194.1C505.63 196.26 499.84 196.61 496.49 195.18C493.13 193.74 491.3 188.33 491.92 187.25C492.52 186.17 490.09 180.77 490.09 179.33ZM194.75 354.34C193.23 352.9 187.74 350.02 186.52 348.21C185.3 346.42 178.9 347.14 175.25 347.14C171.59 347.14 168.54 348.21 168.84 344.62C168.84 344.62 176.16 342.1 177.99 342.1C179.81 342.1 184.38 342.1 186.83 344.62C189.26 347.14 193.83 350.02 195.96 349.66C198.1 349.3 201.76 353.26 201.46 354.69C201.15 356.14 196.27 355.78 194.75 354.34Z" />
		<path id="Path 10" class="shp7" d="M109.39 115.69C108.56 115.68 107.69 115.66 106.82 115.65C105.23 117.29 103.67 118.96 102.12 120.64C102.61 120.63 103.81 120.39 105.16 120.23C106.56 118.71 107.97 117.19 109.39 115.69ZM114.63 110.29C114.57 109.7 114.39 109 114.1 108.3C112.99 109.39 111.88 110.48 110.79 111.59C111.63 111.77 112.32 111.88 113.02 111.94C113.56 111.39 114.09 110.84 114.63 110.29ZM98.44 125.67C99.5 125.36 100.21 123.31 100.92 121.93C99.78 123.16 98.66 124.42 97.55 125.67C97.81 125.76 98.11 125.77 98.44 125.67ZM97.27 129.17C97.27 129.08 97.25 129 97.22 128.91C96.96 128.3 96.26 128.14 95.33 128.16C68.3 159.05 46.49 194.61 31.27 233.49C31.96 235.25 31.75 238.08 30.47 238.39C30.13 238.47 29.83 238.32 29.55 238.02C28.01 242.11 26.54 246.23 25.15 250.4C24.88 254.47 24.3 260.96 24.07 263.95C23.99 265.07 24.16 266.43 24.5 267.87C38.18 215.98 63.41 168.77 97.27 129.17ZM723.01 351.42C720.43 276.69 694.97 207.77 653.4 151.45C652.89 151.65 652.31 151.83 651.62 151.96C651.31 152.02 651.03 152.04 650.74 152.08C689.09 205.24 712.99 269.52 716.63 339.17C718.75 339.61 721.35 340.07 721.1 343.89C720.91 347.01 721.78 349.79 723.01 351.42Z" />
		<path id="Path 11" fill-rule="evenodd" class="shp8" d="M491.86 699.12C452.42 714.06 409.67 722.26 365 722.26C323.94 722.26 284.5 715.33 247.77 702.61C258.07 703.58 268.2 705.72 278.01 710.09C277.81 703.13 281.44 696.17 287.27 692.36C289.47 696.44 293.41 699.56 297.9 700.76C299.68 697.17 301.47 693.59 303.26 690C307.09 691.67 310.92 693.34 314.75 695.01C328.48 690.86 344.28 694.46 354.86 704.14C356.32 700.09 357.77 696.05 359.23 692.01C374.55 701.3 394.13 693.33 410.15 685.3C408.14 692.07 416.09 698.09 423.15 698.06C430.21 698.02 436.76 694.48 443.73 693.35C450.81 692.22 458.06 694.71 460.75 701.65C467.38 694.3 480.33 695.95 491.86 699.12ZM475.07 23C475.03 23.12 475.01 23.25 474.97 23.37C473.82 26.89 399.45 33.11 394.43 27.75C392.41 31.46 389.05 33.58 384.79 33.78C380.62 33.97 376.49 32.74 372.31 32.86C366.73 33.03 361.42 35.6 355.84 35.64C350.01 35.68 345.6 31.95 344.7 26.35C326.62 34.21 308.83 25.03 290.67 33.22C286 27.31 281.06 29.49 275.11 32.53C260.45 40.03 242.32 40.07 227.44 33.13C269.79 15.5 316.26 5.74 365 5.74C403.4 5.74 440.39 11.81 475.07 23Z" />
		<path id="Path 12" class="shp9" d="M355.84 35.64C361.42 35.6 366.73 33.03 372.31 32.86C376.49 32.74 380.62 33.97 384.79 33.78C389.05 33.58 392.41 31.46 394.43 27.75C398.18 31.76 440.65 29.29 462.36 26.33C389.63 2.61 308.2 6.42 237.98 36.73C250.36 39.64 263.77 38.33 275.11 32.53C281.06 29.49 286 27.31 290.67 33.22C308.83 25.03 326.62 34.21 344.7 26.35C345.6 31.95 350.01 35.67 355.84 35.64Z" />
		<path id="Path 13" class="shp10" d="M443.73 693.35C436.76 694.48 430.21 698.02 423.15 698.06C416.09 698.09 408.14 692.07 410.16 685.3C394.13 693.33 374.55 701.3 359.23 692.01C357.77 696.05 356.32 700.09 354.86 704.14C344.28 694.46 328.48 690.86 314.76 695.01C310.92 693.34 307.09 691.67 303.26 690C301.47 693.59 299.68 697.17 297.9 700.76C293.41 699.56 289.47 696.44 287.27 692.36C284.44 694.21 282.15 696.8 280.54 699.77C307.6 706.43 335.88 709.99 365 709.99C397.25 709.99 428.47 705.63 458.15 697.51C454.65 693.76 449.15 692.48 443.73 693.35Z" />
	</g>
</svg>